<mxfile host="app.diagrams.net" modified="2020-08-21T10:41:28.078Z" agent="5.0 (Windows NT 10.0; Win64; x64) AppleWebKit/537.36 (KHTML, like Gecko) Chrome/84.0.4147.135 Safari/537.36" etag="0eQpv5M7w9NZuSVbZDdt" version="13.6.4" type="github">
  <diagram name="Page-1" id="bd83a815-5ea8-2e97-e5ec-87c9f400f2fa">
    <mxGraphModel dx="1035" dy="614" grid="1" gridSize="10" guides="1" tooltips="1" connect="1" arrows="1" fold="1" page="1" pageScale="1.5" pageWidth="1169" pageHeight="826" background="#ffffff" math="0" shadow="0">
      <root>
        <mxCell id="0" style=";html=1;" />
        <mxCell id="1" style=";html=1;" parent="0" />
        <mxCell id="kIJgZ0-0CaOkRdr19EaL-111" value="" style="shape=table;html=1;whiteSpace=wrap;startSize=0;container=1;collapsible=0;childLayout=tableLayout;" parent="1" vertex="1">
          <mxGeometry x="57" y="202" width="1115" height="316" as="geometry" />
        </mxCell>
        <mxCell id="kIJgZ0-0CaOkRdr19EaL-112" value="" style="shape=partialRectangle;html=1;whiteSpace=wrap;collapsible=0;dropTarget=0;pointerEvents=0;fillColor=none;top=0;left=0;bottom=0;right=0;points=[[0,0.5],[1,0.5]];portConstraint=eastwest;" parent="kIJgZ0-0CaOkRdr19EaL-111" vertex="1">
          <mxGeometry width="1115" height="72" as="geometry" />
        </mxCell>
        <mxCell id="kIJgZ0-0CaOkRdr19EaL-113" value="&lt;h2&gt;Web Server&lt;/h2&gt;" style="shape=partialRectangle;html=1;whiteSpace=wrap;connectable=0;overflow=hidden;fillColor=none;top=0;left=0;bottom=0;right=0;" parent="kIJgZ0-0CaOkRdr19EaL-112" vertex="1">
          <mxGeometry width="117" height="72" as="geometry" />
        </mxCell>
        <mxCell id="kIJgZ0-0CaOkRdr19EaL-114" value="&lt;h2&gt;Middle Tier&lt;/h2&gt;" style="shape=partialRectangle;html=1;whiteSpace=wrap;connectable=0;overflow=hidden;fillColor=none;top=0;left=0;bottom=0;right=0;" parent="kIJgZ0-0CaOkRdr19EaL-112" vertex="1">
          <mxGeometry x="117" width="111" height="72" as="geometry" />
        </mxCell>
        <mxCell id="kIJgZ0-0CaOkRdr19EaL-115" value="&lt;h2&gt;Database&lt;/h2&gt;" style="shape=partialRectangle;html=1;whiteSpace=wrap;connectable=0;overflow=hidden;fillColor=none;top=0;left=0;bottom=0;right=0;" parent="kIJgZ0-0CaOkRdr19EaL-112" vertex="1">
          <mxGeometry x="228" width="113" height="72" as="geometry" />
        </mxCell>
        <mxCell id="kIJgZ0-0CaOkRdr19EaL-116" value="&lt;h2&gt;P.Database&lt;/h2&gt;" style="shape=partialRectangle;html=1;whiteSpace=wrap;connectable=0;overflow=hidden;fillColor=none;top=0;left=0;bottom=0;right=0;" parent="kIJgZ0-0CaOkRdr19EaL-112" vertex="1">
          <mxGeometry x="341" width="113" height="72" as="geometry" />
        </mxCell>
        <mxCell id="kIJgZ0-0CaOkRdr19EaL-117" value="&lt;h2&gt;&lt;br&gt;&lt;/h2&gt;" style="shape=partialRectangle;html=1;whiteSpace=wrap;connectable=0;overflow=hidden;fillColor=none;top=0;left=0;bottom=0;right=0;" parent="kIJgZ0-0CaOkRdr19EaL-112" vertex="1">
          <mxGeometry x="454" width="115" height="72" as="geometry" />
        </mxCell>
        <mxCell id="kIJgZ0-0CaOkRdr19EaL-118" value="&lt;h2&gt;Optimizer&lt;/h2&gt;" style="shape=partialRectangle;html=1;whiteSpace=wrap;connectable=0;overflow=hidden;fillColor=none;top=0;left=0;bottom=0;right=0;" parent="kIJgZ0-0CaOkRdr19EaL-112" vertex="1">
          <mxGeometry x="569" width="113" height="72" as="geometry" />
        </mxCell>
        <mxCell id="kIJgZ0-0CaOkRdr19EaL-119" value="&lt;h2&gt;Transaction Manager&lt;/h2&gt;" style="shape=partialRectangle;html=1;whiteSpace=wrap;connectable=0;overflow=hidden;fillColor=none;top=0;left=0;bottom=0;right=0;" parent="kIJgZ0-0CaOkRdr19EaL-112" vertex="1">
          <mxGeometry x="682" width="113" height="72" as="geometry" />
        </mxCell>
        <mxCell id="kIJgZ0-0CaOkRdr19EaL-120" value="&lt;h2&gt;Query Manager&lt;/h2&gt;" style="shape=partialRectangle;html=1;whiteSpace=wrap;connectable=0;overflow=hidden;fillColor=none;top=0;left=0;bottom=0;right=0;" parent="kIJgZ0-0CaOkRdr19EaL-112" vertex="1">
          <mxGeometry x="795" width="116" height="72" as="geometry" />
        </mxCell>
        <mxCell id="kIJgZ0-0CaOkRdr19EaL-121" value="&lt;h2&gt;&lt;br&gt;&lt;/h2&gt;" style="shape=partialRectangle;html=1;whiteSpace=wrap;connectable=0;overflow=hidden;fillColor=none;top=0;left=0;bottom=0;right=0;" parent="kIJgZ0-0CaOkRdr19EaL-112" vertex="1">
          <mxGeometry x="911" width="102" height="72" as="geometry" />
        </mxCell>
        <mxCell id="JeDC5EY4vffyy5zIFi5M-104" style="shape=partialRectangle;html=1;whiteSpace=wrap;connectable=0;overflow=hidden;fillColor=none;top=0;left=0;bottom=0;right=0;" vertex="1" parent="kIJgZ0-0CaOkRdr19EaL-112">
          <mxGeometry x="1013" width="102" height="72" as="geometry" />
        </mxCell>
        <mxCell id="kIJgZ0-0CaOkRdr19EaL-162" value="" style="shape=partialRectangle;html=1;whiteSpace=wrap;collapsible=0;dropTarget=0;pointerEvents=0;fillColor=none;top=0;left=0;bottom=0;right=0;points=[[0,0.5],[1,0.5]];portConstraint=eastwest;" parent="kIJgZ0-0CaOkRdr19EaL-111" vertex="1">
          <mxGeometry y="72" width="1115" height="49" as="geometry" />
        </mxCell>
        <mxCell id="kIJgZ0-0CaOkRdr19EaL-163" value="&lt;h3&gt;&lt;span style=&quot;font-weight: normal&quot;&gt;&lt;font color=&quot;#0000ff&quot;&gt;webserver1&lt;/font&gt;&lt;/span&gt;&lt;/h3&gt;" style="shape=partialRectangle;html=1;whiteSpace=wrap;connectable=0;overflow=hidden;fillColor=none;top=0;left=0;bottom=0;right=0;" parent="kIJgZ0-0CaOkRdr19EaL-162" vertex="1">
          <mxGeometry width="117" height="49" as="geometry" />
        </mxCell>
        <mxCell id="kIJgZ0-0CaOkRdr19EaL-164" value="&lt;font color=&quot;#0000ff&quot;&gt;&lt;b&gt;mt1&lt;/b&gt;&lt;/font&gt;" style="shape=partialRectangle;html=1;whiteSpace=wrap;connectable=0;overflow=hidden;fillColor=none;top=0;left=0;bottom=0;right=0;" parent="kIJgZ0-0CaOkRdr19EaL-162" vertex="1">
          <mxGeometry x="117" width="111" height="49" as="geometry" />
        </mxCell>
        <mxCell id="kIJgZ0-0CaOkRdr19EaL-165" value="&lt;font color=&quot;#000099&quot;&gt;&lt;b&gt;db1&lt;/b&gt;&lt;/font&gt;" style="shape=partialRectangle;html=1;whiteSpace=wrap;connectable=0;overflow=hidden;fillColor=none;top=0;left=0;bottom=0;right=0;" parent="kIJgZ0-0CaOkRdr19EaL-162" vertex="1">
          <mxGeometry x="228" width="113" height="49" as="geometry" />
        </mxCell>
        <mxCell id="kIJgZ0-0CaOkRdr19EaL-166" value="" style="shape=partialRectangle;html=1;whiteSpace=wrap;connectable=0;overflow=hidden;fillColor=none;top=0;left=0;bottom=0;right=0;" parent="kIJgZ0-0CaOkRdr19EaL-162" vertex="1">
          <mxGeometry x="341" width="113" height="49" as="geometry" />
        </mxCell>
        <mxCell id="kIJgZ0-0CaOkRdr19EaL-167" value="Yes" style="shape=partialRectangle;html=1;whiteSpace=wrap;connectable=0;overflow=hidden;fillColor=none;top=0;left=0;bottom=0;right=0;" parent="kIJgZ0-0CaOkRdr19EaL-162" vertex="1">
          <mxGeometry x="454" width="115" height="49" as="geometry" />
        </mxCell>
        <mxCell id="kIJgZ0-0CaOkRdr19EaL-168" value="No" style="shape=partialRectangle;html=1;whiteSpace=wrap;connectable=0;overflow=hidden;fillColor=none;top=0;left=0;bottom=0;right=0;" parent="kIJgZ0-0CaOkRdr19EaL-162" vertex="1">
          <mxGeometry x="569" width="113" height="49" as="geometry" />
        </mxCell>
        <mxCell id="kIJgZ0-0CaOkRdr19EaL-169" value="No" style="shape=partialRectangle;html=1;whiteSpace=wrap;connectable=0;overflow=hidden;fillColor=none;top=0;left=0;bottom=0;right=0;" parent="kIJgZ0-0CaOkRdr19EaL-162" vertex="1">
          <mxGeometry x="682" width="113" height="49" as="geometry" />
        </mxCell>
        <mxCell id="kIJgZ0-0CaOkRdr19EaL-170" value="No" style="shape=partialRectangle;html=1;whiteSpace=wrap;connectable=0;overflow=hidden;fillColor=none;top=0;left=0;bottom=0;right=0;" parent="kIJgZ0-0CaOkRdr19EaL-162" vertex="1">
          <mxGeometry x="795" width="116" height="49" as="geometry" />
        </mxCell>
        <mxCell id="kIJgZ0-0CaOkRdr19EaL-171" value="" style="shape=partialRectangle;html=1;whiteSpace=wrap;connectable=0;overflow=hidden;fillColor=none;top=0;left=0;bottom=0;right=0;" parent="kIJgZ0-0CaOkRdr19EaL-162" vertex="1">
          <mxGeometry x="911" width="102" height="49" as="geometry" />
        </mxCell>
        <mxCell id="JeDC5EY4vffyy5zIFi5M-105" style="shape=partialRectangle;html=1;whiteSpace=wrap;connectable=0;overflow=hidden;fillColor=none;top=0;left=0;bottom=0;right=0;" vertex="1" parent="kIJgZ0-0CaOkRdr19EaL-162">
          <mxGeometry x="1013" width="102" height="49" as="geometry" />
        </mxCell>
        <mxCell id="kIJgZ0-0CaOkRdr19EaL-152" value="" style="shape=partialRectangle;html=1;whiteSpace=wrap;collapsible=0;dropTarget=0;pointerEvents=0;fillColor=none;top=0;left=0;bottom=0;right=0;points=[[0,0.5],[1,0.5]];portConstraint=eastwest;" parent="kIJgZ0-0CaOkRdr19EaL-111" vertex="1">
          <mxGeometry y="121" width="1115" height="47" as="geometry" />
        </mxCell>
        <mxCell id="kIJgZ0-0CaOkRdr19EaL-153" value="&lt;h3&gt;&lt;span style=&quot;font-weight: normal&quot;&gt;&lt;font color=&quot;#0000ff&quot;&gt;webserver2&lt;/font&gt;&lt;/span&gt;&lt;/h3&gt;" style="shape=partialRectangle;html=1;whiteSpace=wrap;connectable=0;overflow=hidden;fillColor=none;top=0;left=0;bottom=0;right=0;" parent="kIJgZ0-0CaOkRdr19EaL-152" vertex="1">
          <mxGeometry width="117" height="47" as="geometry" />
        </mxCell>
        <mxCell id="kIJgZ0-0CaOkRdr19EaL-154" value="&lt;font color=&quot;#0000ff&quot;&gt;&lt;b&gt;mt2&lt;/b&gt;&lt;/font&gt;" style="shape=partialRectangle;html=1;whiteSpace=wrap;connectable=0;overflow=hidden;fillColor=none;top=0;left=0;bottom=0;right=0;" parent="kIJgZ0-0CaOkRdr19EaL-152" vertex="1">
          <mxGeometry x="117" width="111" height="47" as="geometry" />
        </mxCell>
        <mxCell id="kIJgZ0-0CaOkRdr19EaL-155" value="&lt;font color=&quot;#000099&quot;&gt;&lt;b&gt;db1&lt;/b&gt;&lt;/font&gt;" style="shape=partialRectangle;html=1;whiteSpace=wrap;connectable=0;overflow=hidden;fillColor=none;top=0;left=0;bottom=0;right=0;" parent="kIJgZ0-0CaOkRdr19EaL-152" vertex="1">
          <mxGeometry x="228" width="113" height="47" as="geometry" />
        </mxCell>
        <mxCell id="kIJgZ0-0CaOkRdr19EaL-156" value="" style="shape=partialRectangle;html=1;whiteSpace=wrap;connectable=0;overflow=hidden;fillColor=none;top=0;left=0;bottom=0;right=0;" parent="kIJgZ0-0CaOkRdr19EaL-152" vertex="1">
          <mxGeometry x="341" width="113" height="47" as="geometry" />
        </mxCell>
        <mxCell id="kIJgZ0-0CaOkRdr19EaL-157" value="No" style="shape=partialRectangle;html=1;whiteSpace=wrap;connectable=0;overflow=hidden;fillColor=none;top=0;left=0;bottom=0;right=0;" parent="kIJgZ0-0CaOkRdr19EaL-152" vertex="1">
          <mxGeometry x="454" width="115" height="47" as="geometry" />
        </mxCell>
        <mxCell id="kIJgZ0-0CaOkRdr19EaL-158" value="Yes" style="shape=partialRectangle;html=1;whiteSpace=wrap;connectable=0;overflow=hidden;fillColor=none;top=0;left=0;bottom=0;right=0;" parent="kIJgZ0-0CaOkRdr19EaL-152" vertex="1">
          <mxGeometry x="569" width="113" height="47" as="geometry" />
        </mxCell>
        <mxCell id="kIJgZ0-0CaOkRdr19EaL-159" value="Yes" style="shape=partialRectangle;html=1;whiteSpace=wrap;connectable=0;overflow=hidden;fillColor=none;top=0;left=0;bottom=0;right=0;" parent="kIJgZ0-0CaOkRdr19EaL-152" vertex="1">
          <mxGeometry x="682" width="113" height="47" as="geometry" />
        </mxCell>
        <mxCell id="kIJgZ0-0CaOkRdr19EaL-160" value="Yes" style="shape=partialRectangle;html=1;whiteSpace=wrap;connectable=0;overflow=hidden;fillColor=none;top=0;left=0;bottom=0;right=0;" parent="kIJgZ0-0CaOkRdr19EaL-152" vertex="1">
          <mxGeometry x="795" width="116" height="47" as="geometry" />
        </mxCell>
        <mxCell id="kIJgZ0-0CaOkRdr19EaL-161" value="" style="shape=partialRectangle;html=1;whiteSpace=wrap;connectable=0;overflow=hidden;fillColor=none;top=0;left=0;bottom=0;right=0;" parent="kIJgZ0-0CaOkRdr19EaL-152" vertex="1">
          <mxGeometry x="911" width="102" height="47" as="geometry" />
        </mxCell>
        <mxCell id="JeDC5EY4vffyy5zIFi5M-106" style="shape=partialRectangle;html=1;whiteSpace=wrap;connectable=0;overflow=hidden;fillColor=none;top=0;left=0;bottom=0;right=0;" vertex="1" parent="kIJgZ0-0CaOkRdr19EaL-152">
          <mxGeometry x="1013" width="102" height="47" as="geometry" />
        </mxCell>
        <mxCell id="kIJgZ0-0CaOkRdr19EaL-142" value="" style="shape=partialRectangle;html=1;whiteSpace=wrap;collapsible=0;dropTarget=0;pointerEvents=0;fillColor=none;top=0;left=0;bottom=0;right=0;points=[[0,0.5],[1,0.5]];portConstraint=eastwest;" parent="kIJgZ0-0CaOkRdr19EaL-111" vertex="1">
          <mxGeometry y="168" width="1115" height="50" as="geometry" />
        </mxCell>
        <mxCell id="kIJgZ0-0CaOkRdr19EaL-143" value="&lt;h3&gt;&lt;span style=&quot;font-weight: normal&quot;&gt;&lt;font color=&quot;#0000ff&quot;&gt;webserver3&lt;/font&gt;&lt;/span&gt;&lt;/h3&gt;" style="shape=partialRectangle;html=1;whiteSpace=wrap;connectable=0;overflow=hidden;fillColor=none;top=0;left=0;bottom=0;right=0;" parent="kIJgZ0-0CaOkRdr19EaL-142" vertex="1">
          <mxGeometry width="117" height="50" as="geometry" />
        </mxCell>
        <mxCell id="kIJgZ0-0CaOkRdr19EaL-144" value="&lt;font color=&quot;#000099&quot;&gt;&lt;b&gt;mt3&lt;/b&gt;&lt;/font&gt;" style="shape=partialRectangle;html=1;whiteSpace=wrap;connectable=0;overflow=hidden;fillColor=none;top=0;left=0;bottom=0;right=0;" parent="kIJgZ0-0CaOkRdr19EaL-142" vertex="1">
          <mxGeometry x="117" width="111" height="50" as="geometry" />
        </mxCell>
        <mxCell id="kIJgZ0-0CaOkRdr19EaL-145" value="&lt;font color=&quot;#000099&quot;&gt;&lt;b&gt;db2&lt;/b&gt;&lt;/font&gt;" style="shape=partialRectangle;html=1;whiteSpace=wrap;connectable=0;overflow=hidden;fillColor=none;top=0;left=0;bottom=0;right=0;" parent="kIJgZ0-0CaOkRdr19EaL-142" vertex="1">
          <mxGeometry x="228" width="113" height="50" as="geometry" />
        </mxCell>
        <mxCell id="kIJgZ0-0CaOkRdr19EaL-146" value="db1" style="shape=partialRectangle;html=1;whiteSpace=wrap;connectable=0;overflow=hidden;fillColor=none;top=0;left=0;bottom=0;right=0;" parent="kIJgZ0-0CaOkRdr19EaL-142" vertex="1">
          <mxGeometry x="341" width="113" height="50" as="geometry" />
        </mxCell>
        <mxCell id="kIJgZ0-0CaOkRdr19EaL-147" value="Yes" style="shape=partialRectangle;html=1;whiteSpace=wrap;connectable=0;overflow=hidden;fillColor=none;top=0;left=0;bottom=0;right=0;" parent="kIJgZ0-0CaOkRdr19EaL-142" vertex="1">
          <mxGeometry x="454" width="115" height="50" as="geometry" />
        </mxCell>
        <mxCell id="kIJgZ0-0CaOkRdr19EaL-148" value="No" style="shape=partialRectangle;html=1;whiteSpace=wrap;connectable=0;overflow=hidden;fillColor=none;top=0;left=0;bottom=0;right=0;" parent="kIJgZ0-0CaOkRdr19EaL-142" vertex="1">
          <mxGeometry x="569" width="113" height="50" as="geometry" />
        </mxCell>
        <mxCell id="kIJgZ0-0CaOkRdr19EaL-149" value="No" style="shape=partialRectangle;html=1;whiteSpace=wrap;connectable=0;overflow=hidden;fillColor=none;top=0;left=0;bottom=0;right=0;" parent="kIJgZ0-0CaOkRdr19EaL-142" vertex="1">
          <mxGeometry x="682" width="113" height="50" as="geometry" />
        </mxCell>
        <mxCell id="kIJgZ0-0CaOkRdr19EaL-150" value="No" style="shape=partialRectangle;html=1;whiteSpace=wrap;connectable=0;overflow=hidden;fillColor=none;top=0;left=0;bottom=0;right=0;" parent="kIJgZ0-0CaOkRdr19EaL-142" vertex="1">
          <mxGeometry x="795" width="116" height="50" as="geometry" />
        </mxCell>
        <mxCell id="kIJgZ0-0CaOkRdr19EaL-151" value="" style="shape=partialRectangle;html=1;whiteSpace=wrap;connectable=0;overflow=hidden;fillColor=none;top=0;left=0;bottom=0;right=0;" parent="kIJgZ0-0CaOkRdr19EaL-142" vertex="1">
          <mxGeometry x="911" width="102" height="50" as="geometry" />
        </mxCell>
        <mxCell id="JeDC5EY4vffyy5zIFi5M-107" style="shape=partialRectangle;html=1;whiteSpace=wrap;connectable=0;overflow=hidden;fillColor=none;top=0;left=0;bottom=0;right=0;" vertex="1" parent="kIJgZ0-0CaOkRdr19EaL-142">
          <mxGeometry x="1013" width="102" height="50" as="geometry" />
        </mxCell>
        <mxCell id="kIJgZ0-0CaOkRdr19EaL-122" value="" style="shape=partialRectangle;html=1;whiteSpace=wrap;collapsible=0;dropTarget=0;pointerEvents=0;fillColor=none;top=0;left=0;bottom=0;right=0;points=[[0,0.5],[1,0.5]];portConstraint=eastwest;" parent="kIJgZ0-0CaOkRdr19EaL-111" vertex="1">
          <mxGeometry y="218" width="1115" height="48" as="geometry" />
        </mxCell>
        <mxCell id="kIJgZ0-0CaOkRdr19EaL-123" value="&lt;h3&gt;&lt;span style=&quot;font-weight: normal&quot;&gt;&lt;font color=&quot;#0000ff&quot;&gt;webserver4&lt;/font&gt;&lt;/span&gt;&lt;/h3&gt;" style="shape=partialRectangle;html=1;whiteSpace=wrap;connectable=0;overflow=hidden;fillColor=none;top=0;left=0;bottom=0;right=0;" parent="kIJgZ0-0CaOkRdr19EaL-122" vertex="1">
          <mxGeometry width="117" height="48" as="geometry" />
        </mxCell>
        <mxCell id="kIJgZ0-0CaOkRdr19EaL-124" value="&lt;font color=&quot;#000099&quot;&gt;&lt;b&gt;mt4&lt;/b&gt;&lt;/font&gt;" style="shape=partialRectangle;html=1;whiteSpace=wrap;connectable=0;overflow=hidden;fillColor=none;top=0;left=0;bottom=0;right=0;" parent="kIJgZ0-0CaOkRdr19EaL-122" vertex="1">
          <mxGeometry x="117" width="111" height="48" as="geometry" />
        </mxCell>
        <mxCell id="kIJgZ0-0CaOkRdr19EaL-125" value="&lt;font color=&quot;#000099&quot;&gt;&lt;b&gt;db3&lt;/b&gt;&lt;/font&gt;" style="shape=partialRectangle;html=1;whiteSpace=wrap;connectable=0;overflow=hidden;fillColor=none;top=0;left=0;bottom=0;right=0;" parent="kIJgZ0-0CaOkRdr19EaL-122" vertex="1">
          <mxGeometry x="228" width="113" height="48" as="geometry" />
        </mxCell>
        <mxCell id="kIJgZ0-0CaOkRdr19EaL-126" value="db2" style="shape=partialRectangle;html=1;whiteSpace=wrap;connectable=0;overflow=hidden;fillColor=none;top=0;left=0;bottom=0;right=0;" parent="kIJgZ0-0CaOkRdr19EaL-122" vertex="1">
          <mxGeometry x="341" width="113" height="48" as="geometry" />
        </mxCell>
        <mxCell id="kIJgZ0-0CaOkRdr19EaL-127" value="No" style="shape=partialRectangle;html=1;whiteSpace=wrap;connectable=0;overflow=hidden;fillColor=none;top=0;left=0;bottom=0;right=0;" parent="kIJgZ0-0CaOkRdr19EaL-122" vertex="1">
          <mxGeometry x="454" width="115" height="48" as="geometry" />
        </mxCell>
        <mxCell id="kIJgZ0-0CaOkRdr19EaL-128" value="Yes" style="shape=partialRectangle;html=1;whiteSpace=wrap;connectable=0;overflow=hidden;fillColor=none;top=0;left=0;bottom=0;right=0;" parent="kIJgZ0-0CaOkRdr19EaL-122" vertex="1">
          <mxGeometry x="569" width="113" height="48" as="geometry" />
        </mxCell>
        <mxCell id="kIJgZ0-0CaOkRdr19EaL-129" value="Yes" style="shape=partialRectangle;html=1;whiteSpace=wrap;connectable=0;overflow=hidden;fillColor=none;top=0;left=0;bottom=0;right=0;" parent="kIJgZ0-0CaOkRdr19EaL-122" vertex="1">
          <mxGeometry x="682" width="113" height="48" as="geometry" />
        </mxCell>
        <mxCell id="kIJgZ0-0CaOkRdr19EaL-130" value="No" style="shape=partialRectangle;html=1;whiteSpace=wrap;connectable=0;overflow=hidden;fillColor=none;top=0;left=0;bottom=0;right=0;" parent="kIJgZ0-0CaOkRdr19EaL-122" vertex="1">
          <mxGeometry x="795" width="116" height="48" as="geometry" />
        </mxCell>
        <mxCell id="kIJgZ0-0CaOkRdr19EaL-131" value="" style="shape=partialRectangle;html=1;whiteSpace=wrap;connectable=0;overflow=hidden;fillColor=none;top=0;left=0;bottom=0;right=0;" parent="kIJgZ0-0CaOkRdr19EaL-122" vertex="1">
          <mxGeometry x="911" width="102" height="48" as="geometry" />
        </mxCell>
        <mxCell id="JeDC5EY4vffyy5zIFi5M-108" style="shape=partialRectangle;html=1;whiteSpace=wrap;connectable=0;overflow=hidden;fillColor=none;top=0;left=0;bottom=0;right=0;" vertex="1" parent="kIJgZ0-0CaOkRdr19EaL-122">
          <mxGeometry x="1013" width="102" height="48" as="geometry" />
        </mxCell>
        <mxCell id="kIJgZ0-0CaOkRdr19EaL-132" value="" style="shape=partialRectangle;html=1;whiteSpace=wrap;collapsible=0;dropTarget=0;pointerEvents=0;fillColor=none;top=0;left=0;bottom=0;right=0;points=[[0,0.5],[1,0.5]];portConstraint=eastwest;" parent="kIJgZ0-0CaOkRdr19EaL-111" vertex="1">
          <mxGeometry y="266" width="1115" height="50" as="geometry" />
        </mxCell>
        <mxCell id="kIJgZ0-0CaOkRdr19EaL-133" value="&lt;h3&gt;&lt;span style=&quot;font-weight: normal&quot;&gt;&lt;font color=&quot;#0000ff&quot;&gt;webserver5&lt;/font&gt;&lt;/span&gt;&lt;/h3&gt;" style="shape=partialRectangle;html=1;whiteSpace=wrap;connectable=0;overflow=hidden;fillColor=none;top=0;left=0;bottom=0;right=0;" parent="kIJgZ0-0CaOkRdr19EaL-132" vertex="1">
          <mxGeometry width="117" height="50" as="geometry" />
        </mxCell>
        <mxCell id="kIJgZ0-0CaOkRdr19EaL-134" value="&lt;font color=&quot;#000099&quot;&gt;&lt;b&gt;mt5&lt;/b&gt;&lt;/font&gt;" style="shape=partialRectangle;html=1;whiteSpace=wrap;connectable=0;overflow=hidden;fillColor=none;top=0;left=0;bottom=0;right=0;" parent="kIJgZ0-0CaOkRdr19EaL-132" vertex="1">
          <mxGeometry x="117" width="111" height="50" as="geometry" />
        </mxCell>
        <mxCell id="kIJgZ0-0CaOkRdr19EaL-135" value="&lt;font color=&quot;#000066&quot;&gt;&lt;b&gt;db4&lt;/b&gt;&lt;/font&gt;" style="shape=partialRectangle;html=1;whiteSpace=wrap;connectable=0;overflow=hidden;fillColor=none;top=0;left=0;bottom=0;right=0;" parent="kIJgZ0-0CaOkRdr19EaL-132" vertex="1">
          <mxGeometry x="228" width="113" height="50" as="geometry" />
        </mxCell>
        <mxCell id="kIJgZ0-0CaOkRdr19EaL-136" value="db1" style="shape=partialRectangle;html=1;whiteSpace=wrap;connectable=0;overflow=hidden;fillColor=none;top=0;left=0;bottom=0;right=0;" parent="kIJgZ0-0CaOkRdr19EaL-132" vertex="1">
          <mxGeometry x="341" width="113" height="50" as="geometry" />
        </mxCell>
        <mxCell id="kIJgZ0-0CaOkRdr19EaL-137" value="Yes" style="shape=partialRectangle;html=1;whiteSpace=wrap;connectable=0;overflow=hidden;fillColor=none;top=0;left=0;bottom=0;right=0;" parent="kIJgZ0-0CaOkRdr19EaL-132" vertex="1">
          <mxGeometry x="454" width="115" height="50" as="geometry" />
        </mxCell>
        <mxCell id="kIJgZ0-0CaOkRdr19EaL-138" value="No" style="shape=partialRectangle;html=1;whiteSpace=wrap;connectable=0;overflow=hidden;fillColor=none;top=0;left=0;bottom=0;right=0;" parent="kIJgZ0-0CaOkRdr19EaL-132" vertex="1">
          <mxGeometry x="569" width="113" height="50" as="geometry" />
        </mxCell>
        <mxCell id="kIJgZ0-0CaOkRdr19EaL-139" value="No" style="shape=partialRectangle;html=1;whiteSpace=wrap;connectable=0;overflow=hidden;fillColor=none;top=0;left=0;bottom=0;right=0;" parent="kIJgZ0-0CaOkRdr19EaL-132" vertex="1">
          <mxGeometry x="682" width="113" height="50" as="geometry" />
        </mxCell>
        <mxCell id="kIJgZ0-0CaOkRdr19EaL-140" value="Yes" style="shape=partialRectangle;html=1;whiteSpace=wrap;connectable=0;overflow=hidden;fillColor=none;top=0;left=0;bottom=0;right=0;" parent="kIJgZ0-0CaOkRdr19EaL-132" vertex="1">
          <mxGeometry x="795" width="116" height="50" as="geometry" />
        </mxCell>
        <mxCell id="kIJgZ0-0CaOkRdr19EaL-141" value="" style="shape=partialRectangle;html=1;whiteSpace=wrap;connectable=0;overflow=hidden;fillColor=none;top=0;left=0;bottom=0;right=0;" parent="kIJgZ0-0CaOkRdr19EaL-132" vertex="1">
          <mxGeometry x="911" width="102" height="50" as="geometry" />
        </mxCell>
        <mxCell id="JeDC5EY4vffyy5zIFi5M-109" style="shape=partialRectangle;html=1;whiteSpace=wrap;connectable=0;overflow=hidden;fillColor=none;top=0;left=0;bottom=0;right=0;" vertex="1" parent="kIJgZ0-0CaOkRdr19EaL-132">
          <mxGeometry x="1013" width="102" height="50" as="geometry" />
        </mxCell>
        <mxCell id="kIJgZ0-0CaOkRdr19EaL-277" value="Web Server" style="shape=table;html=1;whiteSpace=wrap;startSize=30;container=1;collapsible=0;childLayout=tableLayout;fixedRows=1;rowLines=0;fontStyle=1;align=center;fontSize=10;" parent="1" vertex="1">
          <mxGeometry x="90" y="616" width="215" height="130" as="geometry" />
        </mxCell>
        <mxCell id="kIJgZ0-0CaOkRdr19EaL-278" value="" style="shape=partialRectangle;html=1;whiteSpace=wrap;collapsible=0;dropTarget=0;pointerEvents=0;fillColor=none;top=0;left=0;bottom=1;right=0;points=[[0,0.5],[1,0.5]];portConstraint=eastwest;" parent="kIJgZ0-0CaOkRdr19EaL-277" vertex="1">
          <mxGeometry y="30" width="215" height="30" as="geometry" />
        </mxCell>
        <mxCell id="kIJgZ0-0CaOkRdr19EaL-279" value="Node" style="shape=partialRectangle;html=1;whiteSpace=wrap;connectable=0;fillColor=none;top=0;left=0;bottom=0;right=0;overflow=hidden;align=left;" parent="kIJgZ0-0CaOkRdr19EaL-278" vertex="1">
          <mxGeometry width="90" height="30" as="geometry" />
        </mxCell>
        <mxCell id="kIJgZ0-0CaOkRdr19EaL-280" value="webserver1" style="shape=partialRectangle;html=1;whiteSpace=wrap;connectable=0;fillColor=none;top=0;left=0;bottom=0;right=0;align=left;spacingLeft=6;overflow=hidden;" parent="kIJgZ0-0CaOkRdr19EaL-278" vertex="1">
          <mxGeometry x="90" width="125" height="30" as="geometry" />
        </mxCell>
        <mxCell id="kIJgZ0-0CaOkRdr19EaL-281" value="" style="shape=partialRectangle;html=1;whiteSpace=wrap;collapsible=0;dropTarget=0;pointerEvents=0;fillColor=none;top=0;left=0;bottom=0;right=0;points=[[0,0.5],[1,0.5]];portConstraint=eastwest;" parent="kIJgZ0-0CaOkRdr19EaL-277" vertex="1">
          <mxGeometry y="60" width="215" height="40" as="geometry" />
        </mxCell>
        <mxCell id="kIJgZ0-0CaOkRdr19EaL-282" value="Node Address" style="shape=partialRectangle;html=1;whiteSpace=wrap;connectable=0;fillColor=none;top=0;left=0;bottom=0;right=0;overflow=hidden;align=left;" parent="kIJgZ0-0CaOkRdr19EaL-281" vertex="1">
          <mxGeometry width="90" height="40" as="geometry" />
        </mxCell>
        <mxCell id="kIJgZ0-0CaOkRdr19EaL-283" value="1.1.1.110" style="shape=partialRectangle;html=1;whiteSpace=wrap;connectable=0;fillColor=none;top=0;left=0;bottom=0;right=0;align=left;spacingLeft=6;overflow=hidden;" parent="kIJgZ0-0CaOkRdr19EaL-281" vertex="1">
          <mxGeometry x="90" width="125" height="40" as="geometry" />
        </mxCell>
        <mxCell id="kIJgZ0-0CaOkRdr19EaL-284" value="" style="shape=partialRectangle;html=1;whiteSpace=wrap;collapsible=0;dropTarget=0;pointerEvents=0;fillColor=none;top=0;left=0;bottom=0;right=0;points=[[0,0.5],[1,0.5]];portConstraint=eastwest;" parent="kIJgZ0-0CaOkRdr19EaL-277" vertex="1">
          <mxGeometry y="100" width="215" height="30" as="geometry" />
        </mxCell>
        <mxCell id="kIJgZ0-0CaOkRdr19EaL-285" value="Port" style="shape=partialRectangle;html=1;whiteSpace=wrap;connectable=0;fillColor=none;top=0;left=0;bottom=0;right=0;overflow=hidden;align=left;" parent="kIJgZ0-0CaOkRdr19EaL-284" vertex="1">
          <mxGeometry width="90" height="30" as="geometry" />
        </mxCell>
        <mxCell id="kIJgZ0-0CaOkRdr19EaL-286" value="80" style="shape=partialRectangle;html=1;whiteSpace=wrap;connectable=0;fillColor=none;top=0;left=0;bottom=0;right=0;align=left;spacingLeft=6;overflow=hidden;" parent="kIJgZ0-0CaOkRdr19EaL-284" vertex="1">
          <mxGeometry x="90" width="125" height="30" as="geometry" />
        </mxCell>
        <mxCell id="JeDC5EY4vffyy5zIFi5M-120" value="" style="shape=table;html=1;whiteSpace=wrap;startSize=0;container=1;collapsible=0;childLayout=tableLayout;" vertex="1" parent="1">
          <mxGeometry x="90" y="530" width="240" height="40" as="geometry" />
        </mxCell>
        <mxCell id="JeDC5EY4vffyy5zIFi5M-121" value="" style="shape=partialRectangle;html=1;whiteSpace=wrap;collapsible=0;dropTarget=0;pointerEvents=0;fillColor=none;top=0;left=0;bottom=0;right=0;points=[[0,0.5],[1,0.5]];portConstraint=eastwest;" vertex="1" parent="JeDC5EY4vffyy5zIFi5M-120">
          <mxGeometry width="240" height="40" as="geometry" />
        </mxCell>
        <mxCell id="JeDC5EY4vffyy5zIFi5M-122" value="&lt;img src=&quot;data:image/png;base64,iVBORw0KGgoAAAANSUhEUgAAACAAAAAXCAYAAABqBU3hAAABk0lEQVRIDc2WMY6DMBBFuS0dJR3puAFlOnKC0KVMR4mgSJfcxKu30kde4zHOKlq2sBxZ45k3f2YcimVZHGue50NW8Xw+3ev1OmwV7wZ/PB7ufr9v1rt+ZJ8FME2TO5/P7nQ6ubIszdW2rRuGwQGpAHt7EoDAXdeZAS2Yqqrc5XLJAjEBrterw5EVhGxZTdOYNnVdu3Eck2pEAZA7Fhigvu83maWU4g7JWKXYAFiS42gvGwLFwDm73W5RiB8AKQd0vrIABJUoQVhrFIpBWAmsAMiIUewyqih4DDJ0Tu1jfpgi+dG+AljS+/IxXhYkasip1UP4CvvhG4DsY8Q6k/zsOovtArDKwB3UkR37/wCA5NASAPAXTcij5cu/lkCHsQ5XrdUH2PpjGD5MVv3DSVHMdQp0YJXCcqB77KkEsh4iObPGCIjw4eHOR59iQZCNNfOUhUeF2bceHY3c3vO9KYEA9jJTb8R2wMPe8P36v5MAMkRiHKb+egFBEZT72AeJAPzd/ySjsZgOf0J825zfWQrkOPqtzRdoM8U/ujLCRgAAAABJRU5ErkJggg==&quot; alt=&quot;&quot;&gt;" style="shape=partialRectangle;html=1;whiteSpace=wrap;connectable=0;overflow=hidden;fillColor=none;top=0;left=0;bottom=0;right=0;" vertex="1" parent="JeDC5EY4vffyy5zIFi5M-121">
          <mxGeometry width="60" height="40" as="geometry" />
        </mxCell>
        <mxCell id="JeDC5EY4vffyy5zIFi5M-123" value="" style="shape=partialRectangle;html=1;whiteSpace=wrap;connectable=0;overflow=hidden;fillColor=none;top=0;left=0;bottom=0;right=0;" vertex="1" parent="JeDC5EY4vffyy5zIFi5M-121">
          <mxGeometry x="60" width="60" height="40" as="geometry" />
        </mxCell>
        <mxCell id="JeDC5EY4vffyy5zIFi5M-124" value="" style="shape=partialRectangle;html=1;whiteSpace=wrap;connectable=0;overflow=hidden;fillColor=none;top=0;left=0;bottom=0;right=0;" vertex="1" parent="JeDC5EY4vffyy5zIFi5M-121">
          <mxGeometry x="120" width="60" height="40" as="geometry" />
        </mxCell>
        <mxCell id="JeDC5EY4vffyy5zIFi5M-128" style="shape=partialRectangle;html=1;whiteSpace=wrap;connectable=0;overflow=hidden;fillColor=none;top=0;left=0;bottom=0;right=0;" vertex="1" parent="JeDC5EY4vffyy5zIFi5M-121">
          <mxGeometry x="180" width="60" height="40" as="geometry" />
        </mxCell>
        <mxCell id="1516e18e63f93b96-4" value="" style="whiteSpace=wrap;html=1;rounded=0;shadow=0;strokeWidth=1;fontSize=14" parent="1" vertex="1">
          <mxGeometry x="1400" y="1140" width="60" height="50" as="geometry" />
        </mxCell>
        <mxCell id="1516e18e63f93b96-5" value="Relation 8" style="whiteSpace=wrap;html=1;rounded=0;shadow=0;strokeWidth=1;fontSize=14" parent="1" vertex="1">
          <mxGeometry x="1460" y="1140" width="210" height="50" as="geometry" />
        </mxCell>
        <mxCell id="1516e18e63f93b96-12" value="" style="rhombus;whiteSpace=wrap;html=1;rounded=0;shadow=0;strokeWidth=3;fillColor=#000000;fontSize=14" parent="1" vertex="1">
          <mxGeometry x="1415" y="1150" width="30" height="30" as="geometry" />
        </mxCell>
        <mxCell id="1516e18e63f93b96-14" value="" style="whiteSpace=wrap;html=1;rounded=0;shadow=0;strokeWidth=1;fontSize=14" parent="1" vertex="1">
          <mxGeometry x="1400" y="1090" width="60" height="50" as="geometry" />
        </mxCell>
        <mxCell id="1516e18e63f93b96-15" value="Relation 7" style="whiteSpace=wrap;html=1;rounded=0;shadow=0;strokeWidth=1;fontSize=14" parent="1" vertex="1">
          <mxGeometry x="1460" y="1090" width="210" height="50" as="geometry" />
        </mxCell>
        <mxCell id="1516e18e63f93b96-18" value="" style="whiteSpace=wrap;html=1;rounded=0;shadow=0;strokeWidth=1;fontSize=14" parent="1" vertex="1">
          <mxGeometry x="1400" y="1040" width="60" height="50" as="geometry" />
        </mxCell>
        <mxCell id="1516e18e63f93b96-19" value="Relation 6" style="whiteSpace=wrap;html=1;rounded=0;shadow=0;strokeWidth=1;fontSize=14" parent="1" vertex="1">
          <mxGeometry x="1460" y="1040" width="210" height="50" as="geometry" />
        </mxCell>
        <mxCell id="1516e18e63f93b96-20" value="" style="whiteSpace=wrap;html=1;rounded=0;shadow=0;strokeWidth=1;fontSize=14" parent="1" vertex="1">
          <mxGeometry x="1400" y="990" width="60" height="50" as="geometry" />
        </mxCell>
        <mxCell id="1516e18e63f93b96-21" value="Relation 5" style="whiteSpace=wrap;html=1;rounded=0;shadow=0;strokeWidth=1;fontSize=14" parent="1" vertex="1">
          <mxGeometry x="1460" y="990" width="210" height="50" as="geometry" />
        </mxCell>
        <mxCell id="1516e18e63f93b96-22" value="" style="whiteSpace=wrap;html=1;rounded=0;shadow=0;strokeWidth=1;fontSize=14" parent="1" vertex="1">
          <mxGeometry x="1400" y="940" width="60" height="50" as="geometry" />
        </mxCell>
        <mxCell id="1516e18e63f93b96-23" value="Relation 4" style="whiteSpace=wrap;html=1;rounded=0;shadow=0;strokeWidth=1;fontSize=14" parent="1" vertex="1">
          <mxGeometry x="1460" y="940" width="210" height="50" as="geometry" />
        </mxCell>
        <mxCell id="1516e18e63f93b96-24" value="" style="whiteSpace=wrap;html=1;rounded=0;shadow=0;strokeWidth=1;fontSize=14" parent="1" vertex="1">
          <mxGeometry x="1400" y="890" width="60" height="50" as="geometry" />
        </mxCell>
        <mxCell id="1516e18e63f93b96-25" value="Relation 3" style="whiteSpace=wrap;html=1;rounded=0;shadow=0;strokeWidth=1;fontSize=14" parent="1" vertex="1">
          <mxGeometry x="1460" y="890" width="210" height="50" as="geometry" />
        </mxCell>
        <mxCell id="1516e18e63f93b96-26" value="" style="whiteSpace=wrap;html=1;rounded=0;shadow=0;strokeWidth=1;fontSize=14" parent="1" vertex="1">
          <mxGeometry x="1400" y="840" width="60" height="50" as="geometry" />
        </mxCell>
        <mxCell id="1516e18e63f93b96-27" value="Relation 2" style="whiteSpace=wrap;html=1;rounded=0;shadow=0;strokeWidth=1;fontSize=14" parent="1" vertex="1">
          <mxGeometry x="1460" y="840" width="210" height="50" as="geometry" />
        </mxCell>
        <mxCell id="1516e18e63f93b96-28" value="" style="whiteSpace=wrap;html=1;rounded=0;shadow=0;strokeWidth=1;fontSize=14" parent="1" vertex="1">
          <mxGeometry x="1400" y="790" width="60" height="50" as="geometry" />
        </mxCell>
        <mxCell id="1516e18e63f93b96-29" value="Relation 1" style="whiteSpace=wrap;html=1;rounded=0;shadow=0;strokeWidth=1;fontSize=14" parent="1" vertex="1">
          <mxGeometry x="1460" y="790" width="210" height="50" as="geometry" />
        </mxCell>
        <mxCell id="1516e18e63f93b96-3" value="Cluster Studio - Tabular Forms" style="text;strokeColor=none;fillColor=none;html=1;fontSize=24;fontStyle=1;verticalAlign=middle;align=center;rounded=0;shadow=1;" parent="1" vertex="1">
          <mxGeometry x="90" y="10" width="780" height="40" as="geometry" />
        </mxCell>
        <mxCell id="1516e18e63f93b96-6" value="" style="ellipse;whiteSpace=wrap;html=1;rounded=0;shadow=0;strokeWidth=3;fontSize=14" parent="1" vertex="1">
          <mxGeometry x="1415" y="800" width="30" height="30" as="geometry" />
        </mxCell>
        <mxCell id="1516e18e63f93b96-7" value="" style="ellipse;whiteSpace=wrap;html=1;rounded=0;shadow=0;strokeWidth=3;fontSize=14;fillColor=#000000;" parent="1" vertex="1">
          <mxGeometry x="1415" y="850" width="30" height="30" as="geometry" />
        </mxCell>
        <mxCell id="1516e18e63f93b96-8" value="" style="triangle;whiteSpace=wrap;html=1;rounded=0;shadow=0;strokeWidth=3;fillColor=#000000;fontSize=14;direction=north;" parent="1" vertex="1">
          <mxGeometry x="1415" y="950" width="30" height="30" as="geometry" />
        </mxCell>
        <mxCell id="1516e18e63f93b96-9" value="" style="triangle;whiteSpace=wrap;html=1;rounded=0;shadow=0;strokeWidth=3;fontSize=14;direction=north;" parent="1" vertex="1">
          <mxGeometry x="1415" y="900" width="30" height="30" as="geometry" />
        </mxCell>
        <mxCell id="1516e18e63f93b96-10" value="" style="whiteSpace=wrap;html=1;rounded=0;shadow=0;strokeWidth=3;fontSize=14" parent="1" vertex="1">
          <mxGeometry x="1415" y="1000" width="30" height="30" as="geometry" />
        </mxCell>
        <mxCell id="1516e18e63f93b96-11" value="" style="whiteSpace=wrap;html=1;rounded=0;shadow=0;strokeWidth=3;fillColor=#000000;fontSize=14" parent="1" vertex="1">
          <mxGeometry x="1415" y="1050" width="30" height="30" as="geometry" />
        </mxCell>
        <mxCell id="1516e18e63f93b96-13" value="" style="rhombus;whiteSpace=wrap;html=1;rounded=0;shadow=0;strokeWidth=3;fontSize=14" parent="1" vertex="1">
          <mxGeometry x="1415" y="1100" width="30" height="30" as="geometry" />
        </mxCell>
        <object label="" id="1516e18e63f93b96-32">
          <mxCell style="ellipse;whiteSpace=wrap;html=1;rounded=0;shadow=0;strokeWidth=3;fontSize=14" parent="1" vertex="1">
            <mxGeometry x="285" y="100" width="30" height="30" as="geometry" />
          </mxCell>
        </object>
        <mxCell id="1516e18e63f93b96-37" value="" style="triangle;whiteSpace=wrap;html=1;rounded=0;shadow=0;strokeWidth=3;fillColor=#000000;fontSize=14;direction=north;" parent="1" vertex="1">
          <mxGeometry x="1138" y="775" width="30" height="30" as="geometry" />
        </mxCell>
        <mxCell id="1516e18e63f93b96-50" value="" style="rhombus;whiteSpace=wrap;html=1;rounded=0;shadow=0;strokeWidth=3;fillColor=#000000;fontSize=14" parent="1" vertex="1">
          <mxGeometry x="1138" y="655" width="30" height="30" as="geometry" />
        </mxCell>
        <mxCell id="kIJgZ0-0CaOkRdr19EaL-2" value="" style="ellipse;whiteSpace=wrap;html=1;rounded=0;shadow=0;strokeWidth=3;fontSize=14" parent="1" vertex="1">
          <mxGeometry x="405" y="100" width="30" height="30" as="geometry" />
        </mxCell>
        <mxCell id="kIJgZ0-0CaOkRdr19EaL-3" value="" style="ellipse;whiteSpace=wrap;html=1;rounded=0;shadow=0;strokeWidth=3;fontSize=14" parent="1" vertex="1">
          <mxGeometry x="525" y="100" width="30" height="30" as="geometry" />
        </mxCell>
        <mxCell id="kIJgZ0-0CaOkRdr19EaL-4" value="" style="ellipse;whiteSpace=wrap;html=1;rounded=0;shadow=0;strokeWidth=3;fontSize=14" parent="1" vertex="1">
          <mxGeometry x="645" y="100" width="30" height="30" as="geometry" />
        </mxCell>
        <mxCell id="kIJgZ0-0CaOkRdr19EaL-7" value="Production" style="text;strokeColor=none;fillColor=none;html=1;fontSize=10;fontStyle=1;verticalAlign=middle;align=center;rounded=0;shadow=1;" parent="1" vertex="1">
          <mxGeometry x="265" y="82" width="70" height="20" as="geometry" />
        </mxCell>
        <mxCell id="kIJgZ0-0CaOkRdr19EaL-8" value="Development" style="text;strokeColor=none;fillColor=none;html=1;fontSize=10;fontStyle=1;verticalAlign=middle;align=center;rounded=0;shadow=1;" parent="1" vertex="1">
          <mxGeometry x="385" y="80" width="70" height="20" as="geometry" />
        </mxCell>
        <mxCell id="kIJgZ0-0CaOkRdr19EaL-9" value="Testing" style="text;strokeColor=none;fillColor=none;html=1;fontSize=10;fontStyle=1;verticalAlign=middle;align=center;rounded=0;shadow=1;" parent="1" vertex="1">
          <mxGeometry x="505" y="82" width="70" height="20" as="geometry" />
        </mxCell>
        <mxCell id="kIJgZ0-0CaOkRdr19EaL-10" value="Import" style="text;strokeColor=none;fillColor=none;html=1;fontSize=10;fontStyle=1;verticalAlign=middle;align=center;rounded=0;shadow=1;" parent="1" vertex="1">
          <mxGeometry x="625" y="82" width="70" height="20" as="geometry" />
        </mxCell>
        <mxCell id="kIJgZ0-0CaOkRdr19EaL-232" value="&lt;h2&gt;Ingestor&lt;/h2&gt;" style="shape=partialRectangle;html=1;whiteSpace=wrap;connectable=0;overflow=hidden;fillColor=none;top=0;left=0;bottom=0;right=0;" parent="1" vertex="1">
          <mxGeometry x="500" y="210" width="106" height="49" as="geometry" />
        </mxCell>
        <mxCell id="kIJgZ0-0CaOkRdr19EaL-244" value="" style="html=1;verticalLabelPosition=bottom;labelBackgroundColor=#ffffff;verticalAlign=top;shadow=0;dashed=0;strokeWidth=2;shape=mxgraph.ios7.misc.add;fillColor=#00dd00;strokeColor=#ffffff;fontSize=10;" parent="1" vertex="1">
          <mxGeometry x="150" y="259" width="12" height="12" as="geometry" />
        </mxCell>
        <mxCell id="kIJgZ0-0CaOkRdr19EaL-247" value="" style="html=1;verticalLabelPosition=bottom;labelBackgroundColor=#ffffff;verticalAlign=top;shadow=0;dashed=0;strokeWidth=2;shape=mxgraph.ios7.misc.add;fillColor=#00dd00;strokeColor=#ffffff;fontSize=10;" parent="1" vertex="1">
          <mxGeometry x="265" y="259" width="12" height="12" as="geometry" />
        </mxCell>
        <mxCell id="kIJgZ0-0CaOkRdr19EaL-248" value="" style="html=1;verticalLabelPosition=bottom;labelBackgroundColor=#ffffff;verticalAlign=top;shadow=0;dashed=0;strokeWidth=2;shape=mxgraph.ios7.misc.add;fillColor=#00dd00;strokeColor=#ffffff;fontSize=10;" parent="1" vertex="1">
          <mxGeometry x="380" y="259" width="12" height="12" as="geometry" />
        </mxCell>
        <mxCell id="kIJgZ0-0CaOkRdr19EaL-288" value="Save" style="rounded=1;html=1;shadow=0;dashed=0;whiteSpace=wrap;fontSize=10;fillColor=#666666;align=center;strokeColor=#4D4D4D;fontColor=#ffffff;" parent="1" vertex="1">
          <mxGeometry x="130.25" y="753.56" width="49.5" height="26.88" as="geometry" />
        </mxCell>
        <mxCell id="kIJgZ0-0CaOkRdr19EaL-290" value="Close" style="rounded=1;html=1;shadow=0;dashed=0;whiteSpace=wrap;fontSize=10;fillColor=#666666;align=center;strokeColor=#4D4D4D;fontColor=#ffffff;" parent="1" vertex="1">
          <mxGeometry x="205" y="753.56" width="49.5" height="26.88" as="geometry" />
        </mxCell>
        <mxCell id="kIJgZ0-0CaOkRdr19EaL-301" value="Save" style="rounded=1;html=1;shadow=0;dashed=0;whiteSpace=wrap;fontSize=10;fillColor=#666666;align=center;strokeColor=#4D4D4D;fontColor=#ffffff;" parent="1" vertex="1">
          <mxGeometry x="455" y="886" width="49.5" height="26.88" as="geometry" />
        </mxCell>
        <mxCell id="kIJgZ0-0CaOkRdr19EaL-302" value="Close" style="rounded=1;html=1;shadow=0;dashed=0;whiteSpace=wrap;fontSize=10;fillColor=#666666;align=center;strokeColor=#4D4D4D;fontColor=#ffffff;" parent="1" vertex="1">
          <mxGeometry x="529.75" y="886" width="49.5" height="26.88" as="geometry" />
        </mxCell>
        <mxCell id="kIJgZ0-0CaOkRdr19EaL-291" value="Middle Tier" style="shape=table;html=1;whiteSpace=wrap;startSize=30;container=1;collapsible=0;childLayout=tableLayout;fixedRows=1;rowLines=0;fontStyle=1;align=center;fontSize=10;" parent="1" vertex="1">
          <mxGeometry x="420" y="616" width="215" height="260" as="geometry" />
        </mxCell>
        <mxCell id="kIJgZ0-0CaOkRdr19EaL-292" value="" style="shape=partialRectangle;html=1;whiteSpace=wrap;collapsible=0;dropTarget=0;pointerEvents=0;fillColor=none;top=0;left=0;bottom=1;right=0;points=[[0,0.5],[1,0.5]];portConstraint=eastwest;" parent="kIJgZ0-0CaOkRdr19EaL-291" vertex="1">
          <mxGeometry y="30" width="215" height="30" as="geometry" />
        </mxCell>
        <mxCell id="kIJgZ0-0CaOkRdr19EaL-293" value="Node" style="shape=partialRectangle;html=1;whiteSpace=wrap;connectable=0;fillColor=none;top=0;left=0;bottom=0;right=0;overflow=hidden;align=left;" parent="kIJgZ0-0CaOkRdr19EaL-292" vertex="1">
          <mxGeometry width="90" height="30" as="geometry" />
        </mxCell>
        <mxCell id="kIJgZ0-0CaOkRdr19EaL-294" value="mt2" style="shape=partialRectangle;html=1;whiteSpace=wrap;connectable=0;fillColor=none;top=0;left=0;bottom=0;right=0;align=left;spacingLeft=6;overflow=hidden;" parent="kIJgZ0-0CaOkRdr19EaL-292" vertex="1">
          <mxGeometry x="90" width="125" height="30" as="geometry" />
        </mxCell>
        <mxCell id="kIJgZ0-0CaOkRdr19EaL-295" value="" style="shape=partialRectangle;html=1;whiteSpace=wrap;collapsible=0;dropTarget=0;pointerEvents=0;fillColor=none;top=0;left=0;bottom=0;right=0;points=[[0,0.5],[1,0.5]];portConstraint=eastwest;" parent="kIJgZ0-0CaOkRdr19EaL-291" vertex="1">
          <mxGeometry y="60" width="215" height="30" as="geometry" />
        </mxCell>
        <mxCell id="kIJgZ0-0CaOkRdr19EaL-296" value="Node Address" style="shape=partialRectangle;html=1;whiteSpace=wrap;connectable=0;fillColor=none;top=0;left=0;bottom=0;right=0;overflow=hidden;align=left;" parent="kIJgZ0-0CaOkRdr19EaL-295" vertex="1">
          <mxGeometry width="90" height="30" as="geometry" />
        </mxCell>
        <mxCell id="kIJgZ0-0CaOkRdr19EaL-297" value="1.1.1.110" style="shape=partialRectangle;html=1;whiteSpace=wrap;connectable=0;fillColor=none;top=0;left=0;bottom=0;right=0;align=left;spacingLeft=6;overflow=hidden;" parent="kIJgZ0-0CaOkRdr19EaL-295" vertex="1">
          <mxGeometry x="90" width="125" height="30" as="geometry" />
        </mxCell>
        <mxCell id="kIJgZ0-0CaOkRdr19EaL-298" value="" style="shape=partialRectangle;html=1;whiteSpace=wrap;collapsible=0;dropTarget=0;pointerEvents=0;fillColor=none;top=0;left=0;bottom=0;right=0;points=[[0,0.5],[1,0.5]];portConstraint=eastwest;" parent="kIJgZ0-0CaOkRdr19EaL-291" vertex="1">
          <mxGeometry y="90" width="215" height="30" as="geometry" />
        </mxCell>
        <mxCell id="kIJgZ0-0CaOkRdr19EaL-299" value="Port" style="shape=partialRectangle;html=1;whiteSpace=wrap;connectable=0;fillColor=none;top=0;left=0;bottom=0;right=0;overflow=hidden;align=left;" parent="kIJgZ0-0CaOkRdr19EaL-298" vertex="1">
          <mxGeometry width="90" height="30" as="geometry" />
        </mxCell>
        <mxCell id="kIJgZ0-0CaOkRdr19EaL-300" value="80" style="shape=partialRectangle;html=1;whiteSpace=wrap;connectable=0;fillColor=none;top=0;left=0;bottom=0;right=0;align=left;spacingLeft=6;overflow=hidden;" parent="kIJgZ0-0CaOkRdr19EaL-298" vertex="1">
          <mxGeometry x="90" width="125" height="30" as="geometry" />
        </mxCell>
        <mxCell id="kIJgZ0-0CaOkRdr19EaL-303" value="Save" style="rounded=1;html=1;shadow=0;dashed=0;whiteSpace=wrap;fontSize=10;fillColor=#666666;align=center;strokeColor=#4D4D4D;fontColor=#ffffff;" parent="1" vertex="1">
          <mxGeometry x="754" y="935" width="49.5" height="26.88" as="geometry" />
        </mxCell>
        <mxCell id="kIJgZ0-0CaOkRdr19EaL-304" value="Close" style="rounded=1;html=1;shadow=0;dashed=0;whiteSpace=wrap;fontSize=10;fillColor=#666666;align=center;strokeColor=#4D4D4D;fontColor=#ffffff;" parent="1" vertex="1">
          <mxGeometry x="834.5" y="935" width="49.5" height="26.88" as="geometry" />
        </mxCell>
        <mxCell id="kIJgZ0-0CaOkRdr19EaL-305" value="Database" style="shape=table;html=1;whiteSpace=wrap;startSize=30;container=1;collapsible=0;childLayout=tableLayout;fixedRows=1;rowLines=0;fontStyle=1;align=center;fontSize=10;" parent="1" vertex="1">
          <mxGeometry x="710" y="616" width="215" height="313" as="geometry" />
        </mxCell>
        <mxCell id="kIJgZ0-0CaOkRdr19EaL-306" value="" style="shape=partialRectangle;html=1;whiteSpace=wrap;collapsible=0;dropTarget=0;pointerEvents=0;fillColor=none;top=0;left=0;bottom=1;right=0;points=[[0,0.5],[1,0.5]];portConstraint=eastwest;" parent="kIJgZ0-0CaOkRdr19EaL-305" vertex="1">
          <mxGeometry y="30" width="215" height="30" as="geometry" />
        </mxCell>
        <mxCell id="kIJgZ0-0CaOkRdr19EaL-307" value="Node" style="shape=partialRectangle;html=1;whiteSpace=wrap;connectable=0;fillColor=none;top=0;left=0;bottom=0;right=0;overflow=hidden;align=left;" parent="kIJgZ0-0CaOkRdr19EaL-306" vertex="1">
          <mxGeometry width="90" height="30" as="geometry" />
        </mxCell>
        <mxCell id="kIJgZ0-0CaOkRdr19EaL-308" value="db1" style="shape=partialRectangle;html=1;whiteSpace=wrap;connectable=0;fillColor=none;top=0;left=0;bottom=0;right=0;align=left;spacingLeft=6;overflow=hidden;" parent="kIJgZ0-0CaOkRdr19EaL-306" vertex="1">
          <mxGeometry x="90" width="125" height="30" as="geometry" />
        </mxCell>
        <mxCell id="kIJgZ0-0CaOkRdr19EaL-309" value="" style="shape=partialRectangle;html=1;whiteSpace=wrap;collapsible=0;dropTarget=0;pointerEvents=0;fillColor=none;top=0;left=0;bottom=0;right=0;points=[[0,0.5],[1,0.5]];portConstraint=eastwest;" parent="kIJgZ0-0CaOkRdr19EaL-305" vertex="1">
          <mxGeometry y="60" width="215" height="30" as="geometry" />
        </mxCell>
        <mxCell id="kIJgZ0-0CaOkRdr19EaL-310" value="Node Address" style="shape=partialRectangle;html=1;whiteSpace=wrap;connectable=0;fillColor=none;top=0;left=0;bottom=0;right=0;overflow=hidden;align=left;" parent="kIJgZ0-0CaOkRdr19EaL-309" vertex="1">
          <mxGeometry width="90" height="30" as="geometry" />
        </mxCell>
        <mxCell id="kIJgZ0-0CaOkRdr19EaL-311" value="1.1.1.110" style="shape=partialRectangle;html=1;whiteSpace=wrap;connectable=0;fillColor=none;top=0;left=0;bottom=0;right=0;align=left;spacingLeft=6;overflow=hidden;" parent="kIJgZ0-0CaOkRdr19EaL-309" vertex="1">
          <mxGeometry x="90" width="125" height="30" as="geometry" />
        </mxCell>
        <mxCell id="kIJgZ0-0CaOkRdr19EaL-312" value="" style="shape=partialRectangle;html=1;whiteSpace=wrap;collapsible=0;dropTarget=0;pointerEvents=0;fillColor=none;top=0;left=0;bottom=0;right=0;points=[[0,0.5],[1,0.5]];portConstraint=eastwest;" parent="kIJgZ0-0CaOkRdr19EaL-305" vertex="1">
          <mxGeometry y="90" width="215" height="30" as="geometry" />
        </mxCell>
        <mxCell id="kIJgZ0-0CaOkRdr19EaL-313" value="Port" style="shape=partialRectangle;html=1;whiteSpace=wrap;connectable=0;fillColor=none;top=0;left=0;bottom=0;right=0;overflow=hidden;align=left;" parent="kIJgZ0-0CaOkRdr19EaL-312" vertex="1">
          <mxGeometry width="90" height="30" as="geometry" />
        </mxCell>
        <mxCell id="kIJgZ0-0CaOkRdr19EaL-314" value="80" style="shape=partialRectangle;html=1;whiteSpace=wrap;connectable=0;fillColor=none;top=0;left=0;bottom=0;right=0;align=left;spacingLeft=6;overflow=hidden;" parent="kIJgZ0-0CaOkRdr19EaL-312" vertex="1">
          <mxGeometry x="90" width="125" height="30" as="geometry" />
        </mxCell>
        <mxCell id="kIJgZ0-0CaOkRdr19EaL-315" value="c" style="shape=image;html=1;verticalAlign=top;verticalLabelPosition=bottom;labelBackgroundColor=#ffffff;imageAspect=0;aspect=fixed;image=https://cdn1.iconfinder.com/data/icons/shopping-234/64/shopping_red_outline_short-128.png;fontSize=10;align=left;" parent="1" vertex="1">
          <mxGeometry x="55" y="242" width="35" height="35" as="geometry" />
        </mxCell>
        <mxCell id="kIJgZ0-0CaOkRdr19EaL-328" value="c" style="shape=image;html=1;verticalAlign=top;verticalLabelPosition=bottom;labelBackgroundColor=#ffffff;imageAspect=0;aspect=fixed;image=https://cdn1.iconfinder.com/data/icons/shopping-234/64/shopping_red_outline_short-128.png;fontSize=10;align=left;" parent="1" vertex="1">
          <mxGeometry x="179.75" y="242" width="35" height="35" as="geometry" />
        </mxCell>
        <mxCell id="kIJgZ0-0CaOkRdr19EaL-329" value="c" style="shape=image;html=1;verticalAlign=top;verticalLabelPosition=bottom;labelBackgroundColor=#ffffff;imageAspect=0;aspect=fixed;image=https://cdn1.iconfinder.com/data/icons/shopping-234/64/shopping_red_outline_short-128.png;fontSize=10;align=left;" parent="1" vertex="1">
          <mxGeometry x="282.5" y="242" width="35" height="35" as="geometry" />
        </mxCell>
        <mxCell id="kIJgZ0-0CaOkRdr19EaL-330" value="" style="shape=image;html=1;verticalAlign=top;verticalLabelPosition=bottom;labelBackgroundColor=#ffffff;imageAspect=0;aspect=fixed;image=https://cdn1.iconfinder.com/data/icons/shopping-234/64/shopping_red_outline_short-128.png;fontSize=10;align=left;" parent="1" vertex="1">
          <mxGeometry x="405" y="242" width="35" height="35" as="geometry" />
        </mxCell>
        <mxCell id="kIJgZ0-0CaOkRdr19EaL-331" value="" style="shape=image;html=1;verticalAlign=top;verticalLabelPosition=bottom;labelBackgroundColor=#ffffff;imageAspect=0;aspect=fixed;image=https://cdn1.iconfinder.com/data/icons/shopping-234/64/shopping_red_outline_short-128.png;fontSize=10;align=left;" parent="1" vertex="1">
          <mxGeometry x="515" y="242" width="35" height="35" as="geometry" />
        </mxCell>
        <mxCell id="kIJgZ0-0CaOkRdr19EaL-332" value="c" style="shape=image;html=1;verticalAlign=top;verticalLabelPosition=bottom;labelBackgroundColor=#ffffff;imageAspect=0;aspect=fixed;image=https://cdn1.iconfinder.com/data/icons/shopping-234/64/shopping_red_outline_short-128.png;fontSize=10;align=left;" parent="1" vertex="1">
          <mxGeometry x="625" y="242" width="35" height="35" as="geometry" />
        </mxCell>
        <mxCell id="kIJgZ0-0CaOkRdr19EaL-333" value="c" style="shape=image;html=1;verticalAlign=top;verticalLabelPosition=bottom;labelBackgroundColor=#ffffff;imageAspect=0;aspect=fixed;image=https://cdn1.iconfinder.com/data/icons/shopping-234/64/shopping_red_outline_short-128.png;fontSize=10;align=left;" parent="1" vertex="1">
          <mxGeometry x="730" y="242" width="35" height="35" as="geometry" />
        </mxCell>
        <mxCell id="kIJgZ0-0CaOkRdr19EaL-334" value="c" style="shape=image;html=1;verticalAlign=top;verticalLabelPosition=bottom;labelBackgroundColor=#ffffff;imageAspect=0;aspect=fixed;image=https://cdn1.iconfinder.com/data/icons/shopping-234/64/shopping_red_outline_short-128.png;fontSize=10;align=left;" parent="1" vertex="1">
          <mxGeometry x="850" y="242" width="35" height="35" as="geometry" />
        </mxCell>
        <mxCell id="JeDC5EY4vffyy5zIFi5M-58" value="" style="line;strokeWidth=2;html=1;rounded=0;gradientColor=#ffffff;align=left;" vertex="1" parent="1">
          <mxGeometry x="710" y="701" width="215" height="10" as="geometry" />
        </mxCell>
        <mxCell id="JeDC5EY4vffyy5zIFi5M-59" value="" style="line;strokeWidth=2;html=1;rounded=0;gradientColor=#ffffff;align=left;" vertex="1" parent="1">
          <mxGeometry x="710" y="731" width="216" height="10" as="geometry" />
        </mxCell>
        <mxCell id="JeDC5EY4vffyy5zIFi5M-60" value="" style="dashed=0;labelPosition=right;align=left;shape=mxgraph.gmdl.checkbox;strokeColor=none;fillColor=#B0B0B0;strokeWidth=2;aspect=fixed;rounded=0;html=1;allowArrows=1;connectable=1;" vertex="1" parent="1">
          <mxGeometry x="851" y="768.8800000000001" width="16" height="16" as="geometry" />
        </mxCell>
        <mxCell id="JeDC5EY4vffyy5zIFi5M-61" value="Test" style="shape=partialRectangle;html=1;whiteSpace=wrap;connectable=0;fillColor=none;top=0;left=0;bottom=0;right=0;overflow=hidden;align=left;" vertex="1" parent="1">
          <mxGeometry x="710" y="761.88" width="90" height="30" as="geometry" />
        </mxCell>
        <mxCell id="JeDC5EY4vffyy5zIFi5M-63" value="H-DB" style="shape=partialRectangle;html=1;whiteSpace=wrap;connectable=0;fillColor=none;top=0;left=0;bottom=0;right=0;overflow=hidden;align=left;" vertex="1" parent="1">
          <mxGeometry x="710" y="792.5" width="90" height="30" as="geometry" />
        </mxCell>
        <mxCell id="JeDC5EY4vffyy5zIFi5M-64" value="Process Weaver" style="shape=partialRectangle;html=1;whiteSpace=wrap;connectable=0;fillColor=none;top=0;left=0;bottom=0;right=0;overflow=hidden;align=left;" vertex="1" parent="1">
          <mxGeometry x="710" y="832" width="90" height="30" as="geometry" />
        </mxCell>
        <mxCell id="JeDC5EY4vffyy5zIFi5M-65" value="Load Test" style="shape=partialRectangle;html=1;whiteSpace=wrap;connectable=0;fillColor=none;top=0;left=0;bottom=0;right=0;overflow=hidden;align=left;" vertex="1" parent="1">
          <mxGeometry x="710" y="867" width="90" height="30" as="geometry" />
        </mxCell>
        <mxCell id="JeDC5EY4vffyy5zIFi5M-66" value="NDAP" style="shape=partialRectangle;html=1;whiteSpace=wrap;connectable=0;fillColor=none;top=0;left=0;bottom=0;right=0;overflow=hidden;align=left;" vertex="1" parent="1">
          <mxGeometry x="710" y="897" width="90" height="30" as="geometry" />
        </mxCell>
        <mxCell id="JeDC5EY4vffyy5zIFi5M-67" value="" style="dashed=0;labelPosition=right;align=left;shape=mxgraph.gmdl.checkbox;strokeColor=none;fillColor=#B0B0B0;strokeWidth=2;aspect=fixed;rounded=0;html=1;allowArrows=1;connectable=1;" vertex="1" parent="1">
          <mxGeometry x="850" y="801.5000000000001" width="16" height="16" as="geometry" />
        </mxCell>
        <mxCell id="JeDC5EY4vffyy5zIFi5M-68" value="" style="dashed=0;labelPosition=right;align=left;shape=mxgraph.gmdl.checkbox;strokeColor=none;fillColor=#B0B0B0;strokeWidth=2;aspect=fixed;rounded=0;html=1;allowArrows=1;connectable=1;" vertex="1" parent="1">
          <mxGeometry x="850" y="839.0000000000001" width="16" height="16" as="geometry" />
        </mxCell>
        <mxCell id="JeDC5EY4vffyy5zIFi5M-69" value="" style="dashed=0;labelPosition=right;align=left;shape=mxgraph.gmdl.checkbox;strokeColor=none;fillColor=#B0B0B0;strokeWidth=2;aspect=fixed;rounded=0;html=1;allowArrows=1;connectable=1;" vertex="1" parent="1">
          <mxGeometry x="850" y="871.0000000000001" width="16" height="16" as="geometry" />
        </mxCell>
        <mxCell id="JeDC5EY4vffyy5zIFi5M-70" value="" style="dashed=0;labelPosition=right;align=left;shape=mxgraph.gmdl.checkbox;strokeColor=none;fillColor=#B0B0B0;strokeWidth=2;aspect=fixed;rounded=0;html=1;allowArrows=1;connectable=1;" vertex="1" parent="1">
          <mxGeometry x="850" y="907.0000000000001" width="16" height="16" as="geometry" />
        </mxCell>
        <mxCell id="JeDC5EY4vffyy5zIFi5M-71" value="" style="line;strokeWidth=2;html=1;rounded=0;gradientColor=#ffffff;align=left;" vertex="1" parent="1">
          <mxGeometry x="709" y="762" width="216" height="10" as="geometry" />
        </mxCell>
        <mxCell id="JeDC5EY4vffyy5zIFi5M-72" value="Parent DB" style="shape=partialRectangle;html=1;whiteSpace=wrap;connectable=0;fillColor=none;top=0;left=0;bottom=0;right=0;overflow=hidden;align=left;" vertex="1" parent="1">
          <mxGeometry x="711" y="734" width="90" height="30" as="geometry" />
        </mxCell>
        <mxCell id="JeDC5EY4vffyy5zIFi5M-73" value="" style="shape=partialRectangle;html=1;whiteSpace=wrap;connectable=0;fillColor=none;top=0;left=0;bottom=0;right=0;overflow=hidden;align=left;" vertex="1" parent="1">
          <mxGeometry x="710" y="763.88" width="90" height="30" as="geometry" />
        </mxCell>
        <mxCell id="JeDC5EY4vffyy5zIFi5M-74" value="" style="dashed=0;labelPosition=right;align=left;shape=mxgraph.gmdl.checkbox;strokeColor=none;fillColor=#B0B0B0;strokeWidth=2;aspect=fixed;rounded=0;html=1;allowArrows=1;connectable=1;" vertex="1" parent="1">
          <mxGeometry x="851" y="770.8800000000001" width="16" height="16" as="geometry" />
        </mxCell>
        <mxCell id="JeDC5EY4vffyy5zIFi5M-75" value="" style="line;strokeWidth=2;html=1;rounded=0;gradientColor=#ffffff;align=left;" vertex="1" parent="1">
          <mxGeometry x="420" y="702" width="215" height="10" as="geometry" />
        </mxCell>
        <mxCell id="JeDC5EY4vffyy5zIFi5M-76" value="" style="line;strokeWidth=2;html=1;rounded=0;gradientColor=#ffffff;align=left;" vertex="1" parent="1">
          <mxGeometry x="422" y="734" width="215" height="10" as="geometry" />
        </mxCell>
        <mxCell id="JeDC5EY4vffyy5zIFi5M-77" value="" style="line;strokeWidth=2;html=1;rounded=0;gradientColor=#ffffff;align=left;" vertex="1" parent="1">
          <mxGeometry x="421" y="763" width="215" height="10" as="geometry" />
        </mxCell>
        <mxCell id="JeDC5EY4vffyy5zIFi5M-78" value="Transaction M" style="shape=partialRectangle;html=1;whiteSpace=wrap;connectable=0;fillColor=none;top=0;left=0;bottom=0;right=0;overflow=hidden;align=left;" vertex="1" parent="1">
          <mxGeometry x="422" y="736.88" width="90" height="30" as="geometry" />
        </mxCell>
        <mxCell id="JeDC5EY4vffyy5zIFi5M-79" value="" style="dashed=0;labelPosition=right;align=left;shape=mxgraph.gmdl.checkbox;strokeColor=none;fillColor=#B0B0B0;strokeWidth=2;aspect=fixed;rounded=0;html=1;allowArrows=1;connectable=1;" vertex="1" parent="1">
          <mxGeometry x="539" y="745.8800000000001" width="16" height="16" as="geometry" />
        </mxCell>
        <mxCell id="JeDC5EY4vffyy5zIFi5M-80" value="" style="line;strokeWidth=2;html=1;rounded=0;gradientColor=#ffffff;align=left;" vertex="1" parent="1">
          <mxGeometry x="420" y="799" width="215" height="10" as="geometry" />
        </mxCell>
        <mxCell id="JeDC5EY4vffyy5zIFi5M-81" value="Transaction M" style="shape=partialRectangle;html=1;whiteSpace=wrap;connectable=0;fillColor=none;top=0;left=0;bottom=0;right=0;overflow=hidden;align=left;" vertex="1" parent="1">
          <mxGeometry x="421" y="772.88" width="90" height="30" as="geometry" />
        </mxCell>
        <mxCell id="JeDC5EY4vffyy5zIFi5M-82" value="" style="dashed=0;labelPosition=right;align=left;shape=mxgraph.gmdl.checkbox;strokeColor=none;fillColor=#B0B0B0;strokeWidth=2;aspect=fixed;rounded=0;html=1;allowArrows=1;connectable=1;" vertex="1" parent="1">
          <mxGeometry x="538" y="781.8800000000001" width="16" height="16" as="geometry" />
        </mxCell>
        <mxCell id="JeDC5EY4vffyy5zIFi5M-83" value="" style="line;strokeWidth=2;html=1;rounded=0;gradientColor=#ffffff;align=left;" vertex="1" parent="1">
          <mxGeometry x="420" y="834.06" width="215" height="10" as="geometry" />
        </mxCell>
        <mxCell id="JeDC5EY4vffyy5zIFi5M-84" value="Query Manager" style="shape=partialRectangle;html=1;whiteSpace=wrap;connectable=0;fillColor=none;top=0;left=0;bottom=0;right=0;overflow=hidden;align=left;" vertex="1" parent="1">
          <mxGeometry x="421" y="807.94" width="90" height="30" as="geometry" />
        </mxCell>
        <mxCell id="JeDC5EY4vffyy5zIFi5M-85" value="" style="dashed=0;labelPosition=right;align=left;shape=mxgraph.gmdl.checkbox;strokeColor=none;fillColor=#B0B0B0;strokeWidth=2;aspect=fixed;rounded=0;html=1;allowArrows=1;connectable=1;" vertex="1" parent="1">
          <mxGeometry x="538" y="816.94" width="16" height="16" as="geometry" />
        </mxCell>
        <mxCell id="JeDC5EY4vffyy5zIFi5M-87" value="Atomizer" style="shape=partialRectangle;html=1;whiteSpace=wrap;connectable=0;fillColor=none;top=0;left=0;bottom=0;right=0;overflow=hidden;align=left;" vertex="1" parent="1">
          <mxGeometry x="421" y="841" width="90" height="30" as="geometry" />
        </mxCell>
        <mxCell id="JeDC5EY4vffyy5zIFi5M-88" value="" style="dashed=0;labelPosition=right;align=left;shape=mxgraph.gmdl.checkbox;strokeColor=none;fillColor=#B0B0B0;strokeWidth=2;aspect=fixed;rounded=0;html=1;allowArrows=1;connectable=1;" vertex="1" parent="1">
          <mxGeometry x="538" y="850.0000000000001" width="16" height="16" as="geometry" />
        </mxCell>
        <mxCell id="JeDC5EY4vffyy5zIFi5M-89" value="" style="html=1;shadow=0;dashed=0;shape=mxgraph.bootstrap.checkbox2;labelPosition=right;verticalLabelPosition=middle;align=left;verticalAlign=middle;gradientColor=#DEDEDE;fillColor=#EDEDED;checked=0;spacing=5;checkedFill=#0085FC;checkedStroke=#ffffff;rounded=0;strokeColor=#c0c0c0;" vertex="1" parent="1">
          <mxGeometry x="1000" y="230" width="24" height="22" as="geometry" />
        </mxCell>
        <mxCell id="JeDC5EY4vffyy5zIFi5M-90" value="" style="html=1;shadow=0;dashed=0;shape=mxgraph.bootstrap.checkbox2;labelPosition=right;verticalLabelPosition=middle;align=left;verticalAlign=middle;gradientColor=#DEDEDE;fillColor=#EDEDED;checked=1;spacing=5;checkedFill=#0085FC;checkedStroke=#ffffff;rounded=0;strokeColor=#c0c0c0;" vertex="1" parent="1">
          <mxGeometry x="1000" y="290" width="24" height="22" as="geometry" />
        </mxCell>
        <mxCell id="JeDC5EY4vffyy5zIFi5M-91" value="" style="html=1;shadow=0;dashed=0;shape=mxgraph.bootstrap.checkbox2;labelPosition=right;verticalLabelPosition=middle;align=left;verticalAlign=middle;gradientColor=#DEDEDE;fillColor=#EDEDED;checked=0;spacing=5;checkedFill=#0085FC;checkedStroke=#ffffff;rounded=0;strokeColor=#c0c0c0;" vertex="1" parent="1">
          <mxGeometry x="1000" y="340" width="24" height="22" as="geometry" />
        </mxCell>
        <mxCell id="JeDC5EY4vffyy5zIFi5M-92" value="" style="html=1;shadow=0;dashed=0;shape=mxgraph.bootstrap.checkbox2;labelPosition=right;verticalLabelPosition=middle;align=left;verticalAlign=middle;gradientColor=#DEDEDE;fillColor=#EDEDED;checked=1;spacing=5;checkedFill=#0085FC;checkedStroke=#ffffff;rounded=0;strokeColor=#c0c0c0;" vertex="1" parent="1">
          <mxGeometry x="1000" y="382" width="24" height="22" as="geometry" />
        </mxCell>
        <mxCell id="JeDC5EY4vffyy5zIFi5M-93" value="" style="html=1;shadow=0;dashed=0;shape=mxgraph.bootstrap.checkbox2;labelPosition=right;verticalLabelPosition=middle;align=left;verticalAlign=middle;gradientColor=#DEDEDE;fillColor=#EDEDED;checked=0;spacing=5;checkedFill=#0085FC;checkedStroke=#ffffff;rounded=0;strokeColor=#c0c0c0;" vertex="1" parent="1">
          <mxGeometry x="1000" y="430" width="24" height="22" as="geometry" />
        </mxCell>
        <mxCell id="JeDC5EY4vffyy5zIFi5M-94" value="" style="html=1;shadow=0;dashed=0;shape=mxgraph.bootstrap.checkbox2;labelPosition=right;verticalLabelPosition=middle;align=left;verticalAlign=middle;gradientColor=#DEDEDE;fillColor=#EDEDED;checked=0;spacing=5;checkedFill=#0085FC;checkedStroke=#ffffff;rounded=0;strokeColor=#c0c0c0;" vertex="1" parent="1">
          <mxGeometry x="1000" y="480" width="24" height="22" as="geometry" />
        </mxCell>
        <mxCell id="JeDC5EY4vffyy5zIFi5M-95" value="Create Database" style="rounded=1;fillColor=#0057D8;align=center;strokeColor=none;html=1;fontColor=#ffffff;fontSize=12" vertex="1" parent="1">
          <mxGeometry x="958" y="160" width="110" height="33" as="geometry" />
        </mxCell>
        <mxCell id="JeDC5EY4vffyy5zIFi5M-97" value="Test Connection" style="rounded=1;fillColor=#0057D8;align=center;strokeColor=none;html=1;fontColor=#ffffff;fontSize=12" vertex="1" parent="1">
          <mxGeometry x="1071" y="160" width="110" height="33" as="geometry" />
        </mxCell>
        <mxCell id="JeDC5EY4vffyy5zIFi5M-110" value="" style="html=1;shadow=0;dashed=0;shape=mxgraph.bootstrap.checkbox2;labelPosition=right;verticalLabelPosition=middle;align=left;verticalAlign=middle;gradientColor=#DEDEDE;fillColor=#EDEDED;checked=0;spacing=5;checkedFill=#0085FC;checkedStroke=#ffffff;rounded=0;strokeColor=#c0c0c0;" vertex="1" parent="1">
          <mxGeometry x="1000" y="230" width="24" height="22" as="geometry" />
        </mxCell>
        <mxCell id="JeDC5EY4vffyy5zIFi5M-111" value="" style="html=1;shadow=0;dashed=0;shape=mxgraph.bootstrap.checkbox2;labelPosition=right;verticalLabelPosition=middle;align=left;verticalAlign=middle;gradientColor=#DEDEDE;fillColor=#EDEDED;checked=1;spacing=5;checkedFill=#0085FC;checkedStroke=#ffffff;rounded=0;strokeColor=#c0c0c0;" vertex="1" parent="1">
          <mxGeometry x="1000" y="290" width="24" height="22" as="geometry" />
        </mxCell>
        <mxCell id="JeDC5EY4vffyy5zIFi5M-112" value="" style="html=1;shadow=0;dashed=0;shape=mxgraph.bootstrap.checkbox2;labelPosition=right;verticalLabelPosition=middle;align=left;verticalAlign=middle;gradientColor=#DEDEDE;fillColor=#EDEDED;checked=0;spacing=5;checkedFill=#0085FC;checkedStroke=#ffffff;rounded=0;strokeColor=#c0c0c0;" vertex="1" parent="1">
          <mxGeometry x="1000" y="340" width="24" height="22" as="geometry" />
        </mxCell>
        <mxCell id="JeDC5EY4vffyy5zIFi5M-113" value="" style="html=1;shadow=0;dashed=0;shape=mxgraph.bootstrap.checkbox2;labelPosition=right;verticalLabelPosition=middle;align=left;verticalAlign=middle;gradientColor=#DEDEDE;fillColor=#EDEDED;checked=1;spacing=5;checkedFill=#0085FC;checkedStroke=#ffffff;rounded=0;strokeColor=#c0c0c0;" vertex="1" parent="1">
          <mxGeometry x="1000" y="382" width="24" height="22" as="geometry" />
        </mxCell>
        <mxCell id="JeDC5EY4vffyy5zIFi5M-114" value="" style="html=1;shadow=0;dashed=0;shape=mxgraph.bootstrap.checkbox2;labelPosition=right;verticalLabelPosition=middle;align=left;verticalAlign=middle;gradientColor=#DEDEDE;fillColor=#EDEDED;checked=0;spacing=5;checkedFill=#0085FC;checkedStroke=#ffffff;rounded=0;strokeColor=#c0c0c0;" vertex="1" parent="1">
          <mxGeometry x="1114" y="430" width="24" height="22" as="geometry" />
        </mxCell>
        <mxCell id="JeDC5EY4vffyy5zIFi5M-115" value="" style="html=1;shadow=0;dashed=0;shape=mxgraph.bootstrap.checkbox2;labelPosition=right;verticalLabelPosition=middle;align=left;verticalAlign=middle;gradientColor=#DEDEDE;fillColor=#EDEDED;checked=0;spacing=5;checkedFill=#0085FC;checkedStroke=#ffffff;rounded=0;strokeColor=#c0c0c0;" vertex="1" parent="1">
          <mxGeometry x="1114" y="480" width="24" height="22" as="geometry" />
        </mxCell>
        <mxCell id="JeDC5EY4vffyy5zIFi5M-116" value="" style="html=1;shadow=0;dashed=0;shape=mxgraph.bootstrap.checkbox2;labelPosition=right;verticalLabelPosition=middle;align=left;verticalAlign=middle;gradientColor=#DEDEDE;fillColor=#EDEDED;checked=0;spacing=5;checkedFill=#0085FC;checkedStroke=#ffffff;rounded=0;strokeColor=#c0c0c0;" vertex="1" parent="1">
          <mxGeometry x="1114" y="230" width="24" height="22" as="geometry" />
        </mxCell>
        <mxCell id="JeDC5EY4vffyy5zIFi5M-117" value="" style="html=1;shadow=0;dashed=0;shape=mxgraph.bootstrap.checkbox2;labelPosition=right;verticalLabelPosition=middle;align=left;verticalAlign=middle;gradientColor=#DEDEDE;fillColor=#EDEDED;checked=1;spacing=5;checkedFill=#0085FC;checkedStroke=#ffffff;rounded=0;strokeColor=#c0c0c0;" vertex="1" parent="1">
          <mxGeometry x="1114" y="290" width="24" height="22" as="geometry" />
        </mxCell>
        <mxCell id="JeDC5EY4vffyy5zIFi5M-118" value="" style="html=1;shadow=0;dashed=0;shape=mxgraph.bootstrap.checkbox2;labelPosition=right;verticalLabelPosition=middle;align=left;verticalAlign=middle;gradientColor=#DEDEDE;fillColor=#EDEDED;checked=0;spacing=5;checkedFill=#0085FC;checkedStroke=#ffffff;rounded=0;strokeColor=#c0c0c0;" vertex="1" parent="1">
          <mxGeometry x="1114" y="340" width="24" height="22" as="geometry" />
        </mxCell>
        <mxCell id="JeDC5EY4vffyy5zIFi5M-119" value="" style="html=1;shadow=0;dashed=0;shape=mxgraph.bootstrap.checkbox2;labelPosition=right;verticalLabelPosition=middle;align=left;verticalAlign=middle;gradientColor=#DEDEDE;fillColor=#EDEDED;checked=1;spacing=5;checkedFill=#0085FC;checkedStroke=#ffffff;rounded=0;strokeColor=#c0c0c0;" vertex="1" parent="1">
          <mxGeometry x="1114" y="382" width="24" height="22" as="geometry" />
        </mxCell>
        <mxCell id="JeDC5EY4vffyy5zIFi5M-126" value="" style="dashed=0;aspect=fixed;verticalLabelPosition=bottom;verticalAlign=top;align=center;shape=mxgraph.gmdl.edit;strokeColor=none;fillColor=#737373;shadow=0;rounded=0;html=1;" vertex="1" parent="1">
          <mxGeometry x="170" y="540" width="20" height="20" as="geometry" />
        </mxCell>
        <mxCell id="JeDC5EY4vffyy5zIFi5M-127" value="" style="verticalLabelPosition=bottom;verticalAlign=top;html=1;shadow=0;dashed=0;strokeWidth=1;shape=mxgraph.ios.iDeleteApp;fillColor=#cccccc;fillColor2=#000000;strokeColor=#ffffff;rounded=0;align=left;" vertex="1" parent="1">
          <mxGeometry x="220" y="540" width="25" height="20" as="geometry" />
        </mxCell>
        <mxCell id="JeDC5EY4vffyy5zIFi5M-129" value="" style="shape=image;html=1;verticalAlign=top;verticalLabelPosition=bottom;labelBackgroundColor=#ffffff;imageAspect=0;aspect=fixed;image=https://cdn1.iconfinder.com/data/icons/material-core/20/add-circle-outline-128.png;rounded=0;strokeColor=#c0c0c0;gradientColor=#ffffff;align=left;" vertex="1" parent="1">
          <mxGeometry x="286" y="536" width="28" height="28" as="geometry" />
        </mxCell>
        <object label="" id="JeDC5EY4vffyy5zIFi5M-153">
          <mxCell style="ellipse;whiteSpace=wrap;html=1;rounded=0;shadow=0;strokeWidth=3;fontSize=14" vertex="1" parent="1">
            <mxGeometry x="295" y="1049" width="30" height="32" as="geometry" />
          </mxCell>
        </object>
        <mxCell id="JeDC5EY4vffyy5zIFi5M-154" value="" style="ellipse;whiteSpace=wrap;html=1;rounded=0;shadow=0;strokeWidth=3;fontSize=14" vertex="1" parent="1">
          <mxGeometry x="415" y="1049" width="30" height="32" as="geometry" />
        </mxCell>
        <mxCell id="JeDC5EY4vffyy5zIFi5M-155" value="" style="ellipse;whiteSpace=wrap;html=1;rounded=0;shadow=0;strokeWidth=3;fontSize=14" vertex="1" parent="1">
          <mxGeometry x="535" y="1049" width="30" height="32" as="geometry" />
        </mxCell>
        <mxCell id="JeDC5EY4vffyy5zIFi5M-156" value="" style="ellipse;whiteSpace=wrap;html=1;rounded=0;shadow=0;strokeWidth=3;fontSize=14" vertex="1" parent="1">
          <mxGeometry x="655" y="1049" width="30" height="32" as="geometry" />
        </mxCell>
        <mxCell id="JeDC5EY4vffyy5zIFi5M-157" value="Production" style="text;strokeColor=none;fillColor=none;html=1;fontSize=10;fontStyle=1;verticalAlign=middle;align=center;rounded=0;shadow=1;" vertex="1" parent="1">
          <mxGeometry x="275" y="1028" width="70" height="22" as="geometry" />
        </mxCell>
        <mxCell id="JeDC5EY4vffyy5zIFi5M-158" value="Development" style="text;strokeColor=none;fillColor=none;html=1;fontSize=10;fontStyle=1;verticalAlign=middle;align=center;rounded=0;shadow=1;" vertex="1" parent="1">
          <mxGeometry x="395" y="1026" width="70" height="22" as="geometry" />
        </mxCell>
        <mxCell id="JeDC5EY4vffyy5zIFi5M-159" value="Testing" style="text;strokeColor=none;fillColor=none;html=1;fontSize=10;fontStyle=1;verticalAlign=middle;align=center;rounded=0;shadow=1;" vertex="1" parent="1">
          <mxGeometry x="515" y="1028" width="70" height="22" as="geometry" />
        </mxCell>
        <mxCell id="JeDC5EY4vffyy5zIFi5M-160" value="Import" style="text;strokeColor=none;fillColor=none;html=1;fontSize=10;fontStyle=1;verticalAlign=middle;align=center;rounded=0;shadow=1;" vertex="1" parent="1">
          <mxGeometry x="635" y="1028" width="70" height="22" as="geometry" />
        </mxCell>
        <mxCell id="JeDC5EY4vffyy5zIFi5M-161" value="Create Database" style="rounded=1;fillColor=#0057D8;align=center;strokeColor=none;html=1;fontColor=#ffffff;fontSize=12" vertex="1" parent="1">
          <mxGeometry x="967" y="1152" width="110" height="35" as="geometry" />
        </mxCell>
        <mxCell id="JeDC5EY4vffyy5zIFi5M-162" value="Test Connection" style="rounded=1;fillColor=#0057D8;align=center;strokeColor=none;html=1;fontColor=#ffffff;fontSize=12" vertex="1" parent="1">
          <mxGeometry x="1080" y="1152" width="110" height="35" as="geometry" />
        </mxCell>
        <mxCell id="JeDC5EY4vffyy5zIFi5M-163" value="Cluster Studio - Workflow design" style="text;strokeColor=none;fillColor=none;html=1;fontSize=24;fontStyle=1;verticalAlign=middle;align=center;rounded=0;shadow=1;" vertex="1" parent="1">
          <mxGeometry x="105" y="965" width="780" height="40" as="geometry" />
        </mxCell>
        <mxCell id="JeDC5EY4vffyy5zIFi5M-164" value="" style="line;strokeWidth=2;direction=south;html=1;rounded=0;gradientColor=#ffffff;align=left;" vertex="1" parent="1">
          <mxGeometry x="409" y="1198" width="10" height="352" as="geometry" />
        </mxCell>
        <mxCell id="JeDC5EY4vffyy5zIFi5M-165" value="" style="line;strokeWidth=2;direction=south;html=1;rounded=0;gradientColor=#ffffff;align=left;" vertex="1" parent="1">
          <mxGeometry x="1000" y="1198" width="10" height="352" as="geometry" />
        </mxCell>
        <mxCell id="JeDC5EY4vffyy5zIFi5M-166" value="" style="line;strokeWidth=2;html=1;rounded=0;gradientColor=#ffffff;align=left;" vertex="1" parent="1">
          <mxGeometry x="420" y="1360" width="583" height="10" as="geometry" />
        </mxCell>
        <mxCell id="JeDC5EY4vffyy5zIFi5M-167" value="" style="html=1;aspect=fixed;strokeColor=none;shadow=0;align=center;verticalAlign=top;fillColor=#3B8DF1;shape=mxgraph.gcp2.cloud_computer;rounded=0;" vertex="1" parent="1">
          <mxGeometry x="301" y="1240" width="45.46" height="40" as="geometry" />
        </mxCell>
        <mxCell id="JeDC5EY4vffyy5zIFi5M-168" value="" style="html=1;aspect=fixed;strokeColor=none;shadow=0;align=center;verticalAlign=top;fillColor=#3B8DF1;shape=mxgraph.gcp2.cloud_computer;rounded=0;" vertex="1" parent="1">
          <mxGeometry x="300.54" y="1300" width="45.46" height="40" as="geometry" />
        </mxCell>
        <mxCell id="JeDC5EY4vffyy5zIFi5M-169" value="" style="html=1;aspect=fixed;strokeColor=none;shadow=0;align=center;verticalAlign=top;fillColor=#3B8DF1;shape=mxgraph.gcp2.cloud_computer;rounded=0;" vertex="1" parent="1">
          <mxGeometry x="301" y="1360" width="45.46" height="40" as="geometry" />
        </mxCell>
        <mxCell id="JeDC5EY4vffyy5zIFi5M-170" value="Middle Tier" style="rounded=1;whiteSpace=wrap;html=1;align=left;fillColor=#b1ddf0;strokeColor=#10739e;" vertex="1" parent="1">
          <mxGeometry x="440" y="1260" width="185" height="40" as="geometry" />
        </mxCell>
        <mxCell id="JeDC5EY4vffyy5zIFi5M-171" value="Middle Tier" style="rounded=1;whiteSpace=wrap;html=1;align=left;fillColor=#b1ddf0;strokeColor=#10739e;" vertex="1" parent="1">
          <mxGeometry x="681" y="1260" width="185" height="40" as="geometry" />
        </mxCell>
        <mxCell id="JeDC5EY4vffyy5zIFi5M-172" value="" style="line;strokeWidth=2;html=1;rounded=0;gradientColor=#ffffff;align=left;" vertex="1" parent="1">
          <mxGeometry x="347.5" y="1250" width="65.5" height="20" as="geometry" />
        </mxCell>
        <mxCell id="JeDC5EY4vffyy5zIFi5M-173" value="" style="line;strokeWidth=2;html=1;rounded=0;gradientColor=#ffffff;align=left;" vertex="1" parent="1">
          <mxGeometry x="347.5" y="1310" width="65.5" height="20" as="geometry" />
        </mxCell>
        <mxCell id="JeDC5EY4vffyy5zIFi5M-174" value="" style="line;strokeWidth=2;html=1;rounded=0;gradientColor=#ffffff;align=left;" vertex="1" parent="1">
          <mxGeometry x="346.46" y="1364" width="65.5" height="20" as="geometry" />
        </mxCell>
        <mxCell id="JeDC5EY4vffyy5zIFi5M-175" value="" style="html=1;aspect=fixed;strokeColor=none;shadow=0;align=center;verticalAlign=top;fillColor=#3B8DF1;shape=mxgraph.gcp2.cloud_computer;rounded=0;" vertex="1" parent="1">
          <mxGeometry x="1071" y="1239" width="45.46" height="40" as="geometry" />
        </mxCell>
        <mxCell id="JeDC5EY4vffyy5zIFi5M-176" value="" style="html=1;aspect=fixed;strokeColor=none;shadow=0;align=center;verticalAlign=top;fillColor=#3B8DF1;shape=mxgraph.gcp2.cloud_computer;rounded=0;" vertex="1" parent="1">
          <mxGeometry x="1071" y="1290" width="45.46" height="40" as="geometry" />
        </mxCell>
        <mxCell id="JeDC5EY4vffyy5zIFi5M-177" value="" style="html=1;aspect=fixed;strokeColor=none;shadow=0;align=center;verticalAlign=top;fillColor=#3B8DF1;shape=mxgraph.gcp2.cloud_computer;rounded=0;" vertex="1" parent="1">
          <mxGeometry x="1071" y="1364" width="45.46" height="40" as="geometry" />
        </mxCell>
        <mxCell id="JeDC5EY4vffyy5zIFi5M-178" value="" style="line;strokeWidth=2;html=1;rounded=0;gradientColor=#ffffff;align=left;" vertex="1" parent="1">
          <mxGeometry x="1004.5" y="1250" width="65.5" height="20" as="geometry" />
        </mxCell>
        <mxCell id="JeDC5EY4vffyy5zIFi5M-179" value="" style="line;strokeWidth=2;html=1;rounded=0;gradientColor=#ffffff;align=left;" vertex="1" parent="1">
          <mxGeometry x="1005.5" y="1300" width="65.5" height="20" as="geometry" />
        </mxCell>
        <mxCell id="JeDC5EY4vffyy5zIFi5M-180" value="" style="line;strokeWidth=2;html=1;rounded=0;gradientColor=#ffffff;align=left;" vertex="1" parent="1">
          <mxGeometry x="1004.5" y="1374" width="65.5" height="20" as="geometry" />
        </mxCell>
        <mxCell id="JeDC5EY4vffyy5zIFi5M-181" value="" style="line;strokeWidth=2;direction=south;html=1;rounded=0;gradientColor=#ffffff;align=left;" vertex="1" parent="1">
          <mxGeometry x="515" y="1300" width="10" height="64" as="geometry" />
        </mxCell>
        <mxCell id="JeDC5EY4vffyy5zIFi5M-183" value="" style="line;strokeWidth=2;direction=south;html=1;rounded=0;gradientColor=#ffffff;align=left;" vertex="1" parent="1">
          <mxGeometry x="765" y="1300" width="10" height="64" as="geometry" />
        </mxCell>
        <mxCell id="JeDC5EY4vffyy5zIFi5M-184" value="" style="strokeWidth=2;html=1;shape=mxgraph.flowchart.database;whiteSpace=wrap;rounded=0;gradientColor=#ffffff;align=left;" vertex="1" parent="1">
          <mxGeometry x="455" y="1400" width="40" height="40" as="geometry" />
        </mxCell>
        <mxCell id="JeDC5EY4vffyy5zIFi5M-185" value="" style="strokeWidth=2;html=1;shape=mxgraph.flowchart.database;whiteSpace=wrap;rounded=0;gradientColor=#ffffff;align=left;" vertex="1" parent="1">
          <mxGeometry x="555" y="1401" width="40" height="40" as="geometry" />
        </mxCell>
        <mxCell id="JeDC5EY4vffyy5zIFi5M-186" value="" style="strokeWidth=2;html=1;shape=mxgraph.flowchart.database;whiteSpace=wrap;rounded=0;gradientColor=#ffffff;align=left;" vertex="1" parent="1">
          <mxGeometry x="645" y="1400" width="40" height="40" as="geometry" />
        </mxCell>
        <mxCell id="JeDC5EY4vffyy5zIFi5M-187" value="" style="strokeWidth=2;html=1;shape=mxgraph.flowchart.database;whiteSpace=wrap;rounded=0;gradientColor=#ffffff;align=left;" vertex="1" parent="1">
          <mxGeometry x="735" y="1400" width="40" height="40" as="geometry" />
        </mxCell>
        <mxCell id="JeDC5EY4vffyy5zIFi5M-188" value="" style="strokeWidth=2;html=1;shape=mxgraph.flowchart.database;whiteSpace=wrap;rounded=0;gradientColor=#ffffff;align=left;" vertex="1" parent="1">
          <mxGeometry x="820" y="1400" width="40" height="40" as="geometry" />
        </mxCell>
        <mxCell id="JeDC5EY4vffyy5zIFi5M-189" value="" style="strokeWidth=2;html=1;shape=mxgraph.flowchart.database;whiteSpace=wrap;rounded=0;gradientColor=#ffffff;align=left;" vertex="1" parent="1">
          <mxGeometry x="918" y="1400" width="40" height="40" as="geometry" />
        </mxCell>
        <mxCell id="JeDC5EY4vffyy5zIFi5M-190" value="" style="strokeWidth=2;html=1;shape=mxgraph.flowchart.database;whiteSpace=wrap;rounded=0;gradientColor=#ffffff;align=left;" vertex="1" parent="1">
          <mxGeometry x="455" y="1460" width="40" height="40" as="geometry" />
        </mxCell>
        <mxCell id="JeDC5EY4vffyy5zIFi5M-191" value="" style="strokeWidth=2;html=1;shape=mxgraph.flowchart.database;whiteSpace=wrap;rounded=0;gradientColor=#ffffff;align=left;" vertex="1" parent="1">
          <mxGeometry x="455" y="1520" width="40" height="40" as="geometry" />
        </mxCell>
        <mxCell id="JeDC5EY4vffyy5zIFi5M-192" value="" style="strokeWidth=2;html=1;shape=mxgraph.flowchart.database;whiteSpace=wrap;rounded=0;gradientColor=#ffffff;align=left;" vertex="1" parent="1">
          <mxGeometry x="736" y="1460" width="40" height="40" as="geometry" />
        </mxCell>
        <mxCell id="JeDC5EY4vffyy5zIFi5M-193" value="" style="line;strokeWidth=2;direction=south;html=1;rounded=0;gradientColor=#ffffff;align=left;" vertex="1" parent="1">
          <mxGeometry x="470" y="1364" width="10" height="36" as="geometry" />
        </mxCell>
        <mxCell id="JeDC5EY4vffyy5zIFi5M-194" value="" style="line;strokeWidth=2;direction=south;html=1;rounded=0;gradientColor=#ffffff;align=left;" vertex="1" parent="1">
          <mxGeometry x="570" y="1365" width="10" height="36" as="geometry" />
        </mxCell>
        <mxCell id="JeDC5EY4vffyy5zIFi5M-195" value="" style="line;strokeWidth=2;direction=south;html=1;rounded=0;gradientColor=#ffffff;align=left;" vertex="1" parent="1">
          <mxGeometry x="660" y="1364" width="10" height="36" as="geometry" />
        </mxCell>
        <mxCell id="JeDC5EY4vffyy5zIFi5M-196" value="" style="line;strokeWidth=2;direction=south;html=1;rounded=0;gradientColor=#ffffff;align=left;" vertex="1" parent="1">
          <mxGeometry x="750" y="1364" width="10" height="36" as="geometry" />
        </mxCell>
        <mxCell id="JeDC5EY4vffyy5zIFi5M-197" value="" style="line;strokeWidth=2;direction=south;html=1;rounded=0;gradientColor=#ffffff;align=left;" vertex="1" parent="1">
          <mxGeometry x="834.5" y="1363" width="10" height="36" as="geometry" />
        </mxCell>
        <mxCell id="JeDC5EY4vffyy5zIFi5M-198" value="" style="line;strokeWidth=2;direction=south;html=1;rounded=0;gradientColor=#ffffff;align=left;" vertex="1" parent="1">
          <mxGeometry x="933" y="1366" width="10" height="36" as="geometry" />
        </mxCell>
        <mxCell id="JeDC5EY4vffyy5zIFi5M-199" value="" style="line;strokeWidth=2;direction=south;html=1;rounded=0;gradientColor=#ffffff;align=left;" vertex="1" parent="1">
          <mxGeometry x="471" y="1440" width="10" height="20" as="geometry" />
        </mxCell>
        <mxCell id="JeDC5EY4vffyy5zIFi5M-200" value="" style="line;strokeWidth=2;direction=south;html=1;rounded=0;gradientColor=#ffffff;align=left;" vertex="1" parent="1">
          <mxGeometry x="470" y="1500" width="10" height="20" as="geometry" />
        </mxCell>
        <mxCell id="JeDC5EY4vffyy5zIFi5M-201" value="" style="line;strokeWidth=2;direction=south;html=1;rounded=0;gradientColor=#ffffff;align=left;" vertex="1" parent="1">
          <mxGeometry x="751" y="1441" width="10" height="19" as="geometry" />
        </mxCell>
        <mxCell id="JeDC5EY4vffyy5zIFi5M-202" value="&lt;div style=&quot;text-align: justify&quot;&gt;&lt;br&gt;&lt;/div&gt;" style="rounded=0;whiteSpace=wrap;html=1;strokeColor=#000099;gradientColor=#ffffff;align=center;" vertex="1" parent="1">
          <mxGeometry x="162.5" y="1200" width="120" height="470" as="geometry" />
        </mxCell>
        <mxCell id="JeDC5EY4vffyy5zIFi5M-203" value="Tools Bar" style="text;html=1;strokeColor=none;fillColor=none;align=center;verticalAlign=middle;whiteSpace=wrap;rounded=0;" vertex="1" parent="1">
          <mxGeometry x="179.5" y="1210" width="86" height="20" as="geometry" />
        </mxCell>
        <mxCell id="JeDC5EY4vffyy5zIFi5M-204" value="" style="html=1;aspect=fixed;strokeColor=none;shadow=0;align=center;verticalAlign=top;fillColor=#3B8DF1;shape=mxgraph.gcp2.cloud_computer;rounded=0;" vertex="1" parent="1">
          <mxGeometry x="190" y="1279" width="45.46" height="40" as="geometry" />
        </mxCell>
        <mxCell id="JeDC5EY4vffyy5zIFi5M-205" value="Middle Tier" style="rounded=1;whiteSpace=wrap;html=1;align=left;fillColor=#b1ddf0;strokeColor=#10739e;" vertex="1" parent="1">
          <mxGeometry x="172.73" y="1345" width="80" height="40" as="geometry" />
        </mxCell>
        <mxCell id="JeDC5EY4vffyy5zIFi5M-206" value="" style="strokeWidth=2;html=1;shape=mxgraph.flowchart.database;whiteSpace=wrap;rounded=0;gradientColor=#ffffff;align=left;" vertex="1" parent="1">
          <mxGeometry x="189.99999999999997" y="1419" width="40" height="40" as="geometry" />
        </mxCell>
      </root>
    </mxGraphModel>
  </diagram>
</mxfile>
